<svg width="77" height="46" viewBox="0 0 77 46" fill="none" xmlns="http://www.w3.org/2000/svg">
<rect width="33" height="33" rx="2" fill="white"/>
<g clip-path="url(#clip0_1092_4626)">
<path d="M74.7263 26.8232L74.3059 26.5904C70.5117 24.451 67.6082 21.1427 65.7049 17.2798C64.7076 15.268 63.1633 13.575 61.2475 12.3931C59.3317 11.2113 57.1213 10.5879 54.8673 10.5939H20.9562C20.5195 10.5897 20.0861 10.6713 19.6812 10.8342C19.2762 10.9971 18.9075 11.238 18.5964 11.5431C18.2852 11.8482 18.0377 12.2115 17.8679 12.6121C17.6982 13.0127 17.6097 13.4427 17.6074 13.8774V37.7632C17.6147 38.6404 17.9714 39.4789 18.5993 40.0946C19.2272 40.7102 20.0749 41.0527 20.9562 41.0467H23.7726C23.3171 40.0832 23.1134 39.0208 23.1806 37.958C23.2477 36.8953 23.5835 35.8666 24.1568 34.9675C24.7301 34.0684 25.5223 33.328 26.4598 32.815C27.3974 32.302 28.4499 32.033 29.5198 32.033C30.5897 32.033 31.6423 32.302 32.5799 32.815C33.5174 33.328 34.3096 34.0684 34.8829 34.9675C35.4562 35.8666 35.792 36.8953 35.8591 37.958C35.9263 39.0208 35.7226 40.0832 35.2671 41.0467H55.0514C54.5959 40.0832 54.3922 39.0208 54.4594 37.958C54.5266 36.8953 54.8624 35.8666 55.4356 34.9675C56.0089 34.0684 56.8011 33.328 57.7386 32.815C58.6762 32.302 59.7288 32.033 60.7987 32.033C61.8686 32.033 62.9211 32.302 63.8587 32.815C64.7963 33.328 65.5884 34.0684 66.1617 34.9675C66.735 35.8666 67.0708 36.8953 67.1379 37.958C67.2051 39.0208 67.0014 40.0832 66.5459 41.0467H73.0445C73.4813 41.051 73.9146 40.9693 74.3195 40.8064C74.7245 40.6435 75.0932 40.4026 75.4043 40.0975C75.7155 39.7924 75.9631 39.4291 76.1328 39.0286C76.3025 38.628 76.391 38.198 76.3933 37.7632V29.6585C76.3921 29.0804 76.2373 28.5129 75.9445 28.0137C75.6518 27.5144 75.2315 27.1011 74.7263 26.8158V26.8232Z" fill="white"/>
<path d="M48.8464 41.0683L26.7035 10.6105H20.9562C20.5195 10.6063 20.0861 10.688 19.6812 10.8508C19.2762 11.0137 18.9075 11.2546 18.5964 11.5597C18.2852 11.8648 18.0377 12.2281 17.8679 12.6287C17.6982 13.0293 17.6097 13.4593 17.6074 13.894V37.7799C17.614 38.6575 17.9704 39.4966 18.5984 40.1128C19.2264 40.729 20.0744 41.0718 20.9562 41.0658H23.7726C23.3171 40.1023 23.1134 39.0399 23.1806 37.9772C23.2477 36.9144 23.5835 35.8857 24.1568 34.9866C24.7301 34.0875 25.5223 33.3471 26.4598 32.8341C27.3974 32.3211 28.4499 32.0521 29.5198 32.0521C30.5897 32.0521 31.6423 32.3211 32.5799 32.8341C33.5174 33.3471 34.3096 34.0875 34.8829 34.9866C35.4562 35.8857 35.792 36.9144 35.8591 37.9772C35.9263 39.0399 35.7226 40.1023 35.2671 41.0658L48.8464 41.0683Z" fill="#E0E0E0"/>
<path d="M75.8604 27.2412H17.6045V33.833H75.8604V27.2412Z" fill="#FF223D"/>
<path d="M35.8834 38.3871C35.8833 39.8502 35.3735 41.2681 34.4409 42.3991C33.5082 43.5301 32.2104 44.3043 30.7685 44.5897C29.3267 44.8751 27.83 44.6541 26.5335 43.9643C25.237 43.2745 24.221 42.1587 23.6584 40.8069C23.0959 39.4551 23.0217 37.9509 23.4485 36.5508C23.8753 35.1506 24.7766 33.9411 25.999 33.1282C27.2214 32.3154 28.6891 31.9495 30.1521 32.093C31.6151 32.2364 32.9829 32.8804 34.0224 33.915C34.6125 34.5022 35.0806 35.1994 35.4 35.9667C35.7193 36.7341 35.8836 37.5565 35.8834 38.3871Z" fill="#514C68"/>
<path d="M67.187 38.3868C67.1865 39.637 66.8136 40.8589 66.1155 41.8981C65.4174 42.9374 64.4253 43.7473 63.2648 44.2255C62.1042 44.7036 60.8273 44.8286 59.5954 44.5846C58.3635 44.3406 57.232 43.7386 56.3438 42.8546C55.4556 41.9706 54.8507 40.8444 54.6056 39.6183C54.3604 38.3922 54.486 37.1213 54.9664 35.9662C55.4469 34.8112 56.2606 33.8238 57.3048 33.129C58.3489 32.4341 59.5767 32.063 60.8327 32.0625C61.6673 32.0622 62.4937 32.2256 63.2648 32.5433C64.0359 32.861 64.7365 33.3268 65.3266 33.9142C65.9167 34.5015 66.3848 35.1988 66.704 35.9662C67.0232 36.7337 67.1873 37.5562 67.187 38.3868Z" fill="#514C68"/>
<path d="M63.3311 18.4106C62.6312 17.7714 62.0464 17.0176 61.602 16.182C61.1132 15.6913 60.5698 15.2576 59.9823 14.8894C59.8455 14.8399 59.7111 14.8052 59.5743 14.7557C59.3559 14.6908 59.1647 14.5569 59.0294 14.3743C58.7455 14.2405 58.4529 14.1255 58.1537 14.0301C58.0401 13.9999 57.9348 13.9449 57.8452 13.8692H52.715C52.6628 13.8685 52.6111 13.8782 52.5628 13.8978C52.5145 13.9173 52.4706 13.9463 52.4337 13.983C52.3969 14.0197 52.3678 14.0634 52.3481 14.1114C52.3285 14.1595 52.3187 14.211 52.3194 14.2629V24.2C52.3187 24.2519 52.3285 24.3034 52.3481 24.3515C52.3678 24.3996 52.3969 24.4433 52.4337 24.48C52.4706 24.5166 52.5145 24.5456 52.5628 24.5652C52.6111 24.5847 52.6628 24.5945 52.715 24.5938H63.2938C63.4181 24.5938 63.5373 24.5448 63.6254 24.4576C63.7136 24.3704 63.7634 24.252 63.7641 24.1283V19.2203C63.6363 18.9412 63.4917 18.67 63.3311 18.4081V18.4106Z" fill="#00B8F0"/>
<path d="M40.3449 17.9681H36.2298V13.8848H32.4357V17.9681H28.333V21.7444H32.4357V25.84H36.2298V21.7444H40.3449V17.9681Z" fill="#FF223D"/>
<path d="M49.0947 10.1819L49.3435 7.64874C49.3733 7.35673 49.5114 7.08628 49.7309 6.89027C49.9503 6.69426 50.2354 6.58679 50.5303 6.5889H54.4115C54.7058 6.589 54.9896 6.69725 55.2086 6.89284C55.4277 7.08842 55.5664 7.35759 55.5983 7.64874L55.8471 10.1819" fill="#FF223D"/>
<path d="M32.7068 38.3868C32.7068 39.0123 32.5204 39.6238 32.1712 40.1438C31.822 40.6639 31.3256 41.0692 30.7449 41.3085C30.1643 41.5477 29.5253 41.6102 28.9089 41.488C28.2926 41.3658 27.7265 41.0644 27.2822 40.6219C26.838 40.1794 26.5356 39.6157 26.4133 39.0022C26.291 38.3886 26.3542 37.7527 26.5951 37.175C26.836 36.5972 27.2436 36.1035 27.7664 35.7563C28.2892 35.4092 28.9037 35.2241 29.5322 35.2246C29.9493 35.2246 30.3623 35.3064 30.7476 35.4654C31.133 35.6243 31.483 35.8573 31.7779 36.1509C32.0727 36.4446 32.3065 36.7932 32.4659 37.1769C32.6253 37.5605 32.7072 37.9716 32.7068 38.3868Z" fill="#8B9DA5"/>
<path d="M64.0105 38.3868C64.0105 39.0122 63.8242 39.6236 63.4751 40.1436C63.126 40.6636 62.6298 41.0689 62.0492 41.3082C61.4687 41.5476 60.8299 41.6102 60.2136 41.4882C59.5973 41.3662 59.0311 41.065 58.5868 40.6228C58.1425 40.1805 57.8399 39.6171 57.7173 39.0037C57.5947 38.3903 57.6576 37.7545 57.8981 37.1767C58.1386 36.5989 58.5458 36.105 59.0683 35.7576C59.5907 35.4101 60.205 35.2246 60.8334 35.2246C61.2507 35.2243 61.664 35.3058 62.0496 35.4646C62.4352 35.6234 62.7856 35.8564 63.0807 36.1501C63.3758 36.4438 63.6098 36.7925 63.7694 37.1763C63.9289 37.5601 64.0109 37.9714 64.0105 38.3868Z" fill="#8B9DA5"/>
<path d="M54.1135 24.6166H61.6521C61.9995 24.6187 62.3418 24.5336 62.6473 24.3689L53.0064 14.2832C52.7964 14.4471 52.6263 14.656 52.5087 14.8943C52.3911 15.1327 52.329 15.3944 52.3271 15.66V22.856C52.3298 23.3251 52.5184 23.7743 52.8519 24.1059C53.1855 24.4374 53.6371 24.6245 54.1085 24.6265L54.1135 24.6166Z" fill="#64E9FF"/>
<path d="M29.532 42.1388C28.7865 42.1388 28.0577 41.9187 27.4379 41.5065C26.818 41.0943 26.3349 40.5084 26.0496 39.8229C25.7643 39.1374 25.6897 38.3831 25.8351 37.6554C25.9806 36.9277 26.3396 36.2592 26.8667 35.7345C27.3938 35.2099 28.0655 34.8526 28.7966 34.7078C29.5278 34.5631 30.2857 34.6374 30.9744 34.9213C31.6632 35.2053 32.2519 35.6861 32.666 36.303C33.0802 36.92 33.3013 37.6453 33.3013 38.3872C33.2993 39.3816 32.9015 40.3347 32.1951 41.0378C31.4886 41.7409 30.5311 42.1368 29.532 42.1388ZM29.532 35.8268C29.0231 35.8263 28.5254 35.9761 28.1021 36.2571C27.6787 36.5382 27.3486 36.9379 27.1535 37.4057C26.9584 37.8735 26.9071 38.3884 27.0061 38.8852C27.105 39.3821 27.3499 39.8385 27.7095 40.1969C28.0692 40.5552 28.5276 40.7993 29.0267 40.8983C29.5258 40.9973 30.0432 40.9467 30.5134 40.753C30.9836 40.5593 31.3855 40.2311 31.6683 39.81C31.9511 39.3889 32.1021 38.8938 32.1021 38.3872C32.1024 38.0511 32.0362 37.7182 31.9071 37.4076C31.7781 37.097 31.5889 36.8147 31.3502 36.5769C31.1115 36.3391 30.8281 36.1505 30.5161 36.0218C30.2041 35.8931 29.8697 35.8268 29.532 35.8268Z" fill="#3F0F33"/>
<path d="M60.8337 42.1388C60.0882 42.1388 59.3595 41.9187 58.7396 41.5065C58.1198 41.0943 57.6367 40.5084 57.3514 39.8229C57.0661 39.1374 56.9914 38.3831 57.1369 37.6554C57.2823 36.9277 57.6413 36.2592 58.1685 35.7345C58.6956 35.2099 59.3672 34.8526 60.0984 34.7078C60.8296 34.5631 61.5874 34.6374 62.2762 34.9213C62.9649 35.2053 63.5536 35.6861 63.9678 36.303C64.382 36.92 64.603 37.6453 64.603 38.3872C64.601 39.3816 64.2033 40.3347 63.4968 41.0378C62.7904 41.7409 61.8328 42.1368 60.8337 42.1388ZM60.8337 35.8268C60.3249 35.8268 59.8276 35.977 59.4045 36.2583C58.9814 36.5397 58.6517 36.9396 58.457 37.4074C58.2623 37.8753 58.2113 38.3901 58.3106 38.8868C58.4099 39.3834 58.6549 39.8397 59.0147 40.1978C59.3744 40.5558 59.8328 40.7997 60.3319 40.8985C60.8309 40.9973 61.3481 40.9466 61.8182 40.7528C62.2883 40.559 62.6901 40.2308 62.9727 39.8098C63.2554 39.3887 63.4063 38.8937 63.4063 38.3872C63.407 38.0508 63.3409 37.7176 63.2118 37.4066C63.0828 37.0957 62.8933 36.8132 62.6543 36.5753C62.4153 36.3374 62.1314 36.1488 61.819 36.0204C61.5066 35.892 61.1718 35.8262 60.8337 35.8268Z" fill="#3F0F33"/>
<path d="M29.5318 45.3103C28.154 45.3103 26.8071 44.9037 25.6615 44.1418C24.5159 43.38 23.623 42.2971 23.0957 41.0302C22.5685 39.7632 22.4305 38.3691 22.6993 37.0242C22.9681 35.6792 23.6316 34.4438 24.6058 33.4741C25.5801 32.5045 26.8214 31.8441 28.1727 31.5766C29.524 31.3091 30.9247 31.4464 32.1977 31.9711C33.4706 32.4959 34.5586 33.3846 35.3241 34.5248C36.0895 35.665 36.4981 37.0055 36.4981 38.3768C36.4981 40.2157 35.7641 41.9793 34.4577 43.2796C33.1513 44.5798 31.3794 45.3103 29.5318 45.3103ZM29.5318 32.6542C28.3926 32.6542 27.279 32.9904 26.3319 33.6203C25.3847 34.2502 24.6465 35.1455 24.2105 36.193C23.7746 37.2405 23.6605 38.3931 23.8828 39.5051C24.105 40.6171 24.6536 41.6385 25.4591 42.4402C26.2646 43.2419 27.2908 43.7879 28.4081 44.0091C29.5254 44.2303 30.6834 44.1168 31.7359 43.6829C32.7883 43.249 33.6879 42.5142 34.3207 41.5715C34.9536 40.6288 35.2914 39.5205 35.2914 38.3867C35.2901 36.8668 34.6829 35.4095 33.603 34.3347C32.5231 33.2599 31.0589 32.6555 29.5318 32.6542Z" fill="#3F0F33"/>
<path d="M60.8335 45.3103C59.4557 45.3103 58.1088 44.9037 56.9632 44.1418C55.8176 43.38 54.9247 42.2971 54.3975 41.0302C53.8702 39.7632 53.7322 38.3691 54.001 37.0242C54.2698 35.6792 54.9333 34.4438 55.9076 33.4741C56.8818 32.5045 58.1231 31.8441 59.4745 31.5766C60.8258 31.3091 62.2265 31.4464 63.4994 31.9711C64.7723 32.4959 65.8603 33.3846 66.6258 34.5248C67.3913 35.665 67.7999 37.0055 67.7999 38.3768C67.7999 40.2157 67.0659 41.9793 65.7595 43.2796C64.453 44.5798 62.6811 45.3103 60.8335 45.3103ZM60.8335 32.6542C59.6944 32.6542 58.5808 32.9904 57.6336 33.6203C56.6865 34.2502 55.9482 35.1455 55.5123 36.193C55.0764 37.2405 54.9623 38.3931 55.1845 39.5051C55.4068 40.6171 55.9553 41.6385 56.7608 42.4402C57.5663 43.2419 58.5926 43.7879 59.7099 44.0091C60.8271 44.2303 61.9852 44.1168 63.0376 43.6829C64.0901 43.249 64.9896 42.5142 65.6225 41.5715C66.2554 40.6288 66.5932 39.5205 66.5932 38.3867C66.5919 36.8668 65.9846 35.4095 64.9048 34.3347C63.8249 33.2599 62.3607 32.6555 60.8335 32.6542Z" fill="#3F0F33"/>
<path d="M73.0441 41.6577H66.5928C66.4913 41.6559 66.3919 41.629 66.3036 41.5793C66.2152 41.5296 66.1408 41.4588 66.0869 41.3732C66.033 41.2876 66.0015 41.19 65.9951 41.0892C65.9887 40.9884 66.0077 40.8876 66.0504 40.7959C66.4615 39.9223 66.6444 38.9596 66.5822 37.9969C66.52 37.0342 66.2147 36.1027 65.6946 35.2887C65.1745 34.4747 64.4564 33.8045 63.6068 33.3401C62.7572 32.8758 61.8036 32.6323 60.8344 32.6323C59.8651 32.6323 58.9116 32.8758 58.062 33.3401C57.2124 33.8045 56.4943 34.4747 55.9742 35.2887C55.4541 36.1027 55.1488 37.0342 55.0866 37.9969C55.0244 38.9596 55.2073 39.9223 55.6183 40.7959C55.6615 40.8879 55.6807 40.9892 55.6742 41.0904C55.6677 41.1917 55.6356 41.2897 55.581 41.3754C55.5285 41.4602 55.4554 41.5305 55.3685 41.5798C55.2815 41.6291 55.1835 41.6559 55.0834 41.6577H35.2916C35.1899 41.6563 35.0902 41.6297 35.0015 41.5802C34.9128 41.5307 34.838 41.4599 34.7839 41.3742C34.7297 41.2885 34.6979 41.1908 34.6915 41.0898C34.685 40.9888 34.704 40.8878 34.7467 40.7959C35.1561 39.9222 35.3374 38.9598 35.2738 37.9978C35.2101 37.0359 34.9037 36.1054 34.3828 35.2927C33.8618 34.4799 33.1433 33.811 32.2937 33.3481C31.444 32.8851 30.4908 32.643 29.5222 32.6442C28.5535 32.6453 27.6009 32.8897 26.7523 33.3547C25.9038 33.8196 25.1869 34.4902 24.6679 35.3042C24.1489 36.1182 23.8447 37.0494 23.7834 38.0115C23.7221 38.9736 23.9057 39.9356 24.3171 40.8083C24.3599 40.9002 24.3789 41.0012 24.3724 41.1022C24.3659 41.2031 24.3341 41.3009 24.28 41.3866C24.2258 41.4722 24.151 41.543 24.0623 41.5925C23.9736 41.642 23.8739 41.6687 23.7723 41.6701H20.9559C19.9141 41.674 18.9131 41.2673 18.1718 40.5388C17.4305 39.8102 17.0092 38.8192 17 37.7824V13.8965C17.0079 12.8593 17.4288 11.8675 18.1704 11.1387C18.912 10.4099 19.9137 10.0036 20.9559 10.0088H54.867C57.2313 10.0095 59.5486 10.666 61.5588 11.9048C63.569 13.1435 65.1925 14.9154 66.247 17.0215C68.1751 20.9315 71.0662 24.0689 74.6016 26.0722L75.0221 26.3075C75.6218 26.6448 76.1209 27.1346 76.4684 27.7266C76.8159 28.3187 76.9993 28.9919 77 29.6776V37.7824C76.9961 38.2954 76.8907 38.8027 76.6897 39.2751C76.4888 39.7476 76.1962 40.176 75.8289 40.5359C75.4615 40.8958 75.0265 41.18 74.5486 41.3725C74.0708 41.565 73.5596 41.6619 73.0441 41.6577ZM67.4636 40.4641H73.0367C73.7566 40.4688 74.449 40.189 74.962 39.6863C75.4751 39.1836 75.7669 38.4989 75.7734 37.7824V29.6776C75.7726 29.2036 75.6449 28.7384 75.4035 28.3297C75.1622 27.9211 74.8158 27.5837 74.4001 27.3524L73.9821 27.1197C70.2252 24.9901 67.1725 21.6719 65.1448 17.549C64.1902 15.6454 62.7214 14.0442 60.9033 12.9253C59.0852 11.8065 56.9897 11.2141 54.852 11.2148H20.9559C20.2359 11.2101 19.5435 11.4899 19.0305 11.9926C18.5175 12.4953 18.2257 13.18 18.2191 13.8965V37.7824C18.2302 38.4975 18.5234 39.1795 19.0355 39.6813C19.5475 40.183 20.2373 40.4642 20.9559 40.4641H22.894C22.6828 39.7916 22.5746 39.0912 22.5731 38.3866C22.5649 37.3824 22.7759 36.3884 23.1917 35.4734C23.6074 34.5583 24.2179 33.7441 24.981 33.087C25.744 32.4299 26.6413 31.9456 27.6109 31.6677C28.5805 31.3897 29.5991 31.3247 30.5965 31.4771C31.5938 31.6295 32.5459 31.9957 33.387 32.5504C34.2281 33.1051 34.9381 33.835 35.4679 34.6897C35.9977 35.5444 36.3347 36.5034 36.4554 37.5004C36.5762 38.4974 36.4779 39.5086 36.1674 40.4641H54.1977C53.9865 39.7916 53.8783 39.0912 53.8768 38.3866C53.8296 37.448 53.9745 36.5098 54.3029 35.6287C54.6312 34.7477 55.1361 33.9423 55.7868 33.2614C56.4376 32.5805 57.2205 32.0384 58.0882 31.668C58.9559 31.2975 59.8902 31.1065 60.8344 31.1065C61.7785 31.1065 62.7128 31.2975 63.5805 31.668C64.4482 32.0384 65.2312 32.5805 65.8819 33.2614C66.5326 33.9423 67.0375 34.7477 67.3659 35.6287C67.6942 36.5098 67.8392 37.448 67.792 38.3866C67.7881 39.0916 67.6774 39.792 67.4636 40.4641Z" fill="#3F0F33"/>
<path d="M61.9347 25.2134H53.8762C53.3058 25.2128 52.7591 24.9868 52.356 24.5852C51.953 24.1835 51.7266 23.6391 51.7266 23.0715V15.41C51.7266 14.8425 51.953 14.2984 52.3562 13.8971C52.7593 13.4959 53.3061 13.2705 53.8762 13.2705H56.2671C58.4165 13.2718 60.4775 14.1222 61.9973 15.6349C63.5172 17.1476 64.3716 19.1988 64.3729 21.3381V22.752C64.3759 23.0738 64.3149 23.393 64.1933 23.6911C64.0718 23.9893 63.8922 24.2606 63.6649 24.4894C63.4375 24.7182 63.167 24.8999 62.8688 25.0242C62.5705 25.1485 62.2506 25.2128 61.9273 25.2134H61.9347ZM53.8762 14.4863C53.7528 14.4863 53.6306 14.5106 53.5167 14.5576C53.4027 14.6047 53.2992 14.6737 53.2121 14.7606C53.1249 14.8476 53.0559 14.9508 53.0089 15.0643C52.9619 15.1779 52.9379 15.2995 52.9382 15.4223V23.0839C52.9379 23.2067 52.9619 23.3283 53.0089 23.4418C53.0559 23.5554 53.1249 23.6586 53.2121 23.7456C53.2992 23.8325 53.4027 23.9015 53.5167 23.9486C53.6306 23.9956 53.7528 24.0199 53.8762 24.0199H61.9347C62.2646 24.0199 62.5811 23.8894 62.8144 23.6572C63.0476 23.425 63.1787 23.1101 63.1787 22.7817V21.3678C63.1761 19.5486 62.449 17.8045 61.1567 16.5179C59.8644 15.2312 58.1124 14.5069 56.2845 14.5037H53.8737L53.8762 14.4863Z" fill="#3F0F33"/>
<path d="M36.2297 26.4317H32.4355C32.2749 26.4311 32.1212 26.3671 32.0079 26.2539C31.8945 26.1406 31.8309 25.9873 31.8309 25.8275V22.3335H28.3204C28.1601 22.3335 28.0063 22.2701 27.8929 22.1573C27.7795 22.0444 27.7158 21.8914 27.7158 21.7318V17.9679C27.7158 17.8083 27.7795 17.6553 27.8929 17.5424C28.0063 17.4296 28.1601 17.3662 28.3204 17.3662H31.8309V13.8722C31.8309 13.7126 31.8946 13.5596 32.008 13.4467C32.1214 13.3339 32.2752 13.2705 32.4355 13.2705H36.2297C36.39 13.2705 36.5438 13.3339 36.6572 13.4467C36.7706 13.5596 36.8343 13.7126 36.8343 13.8722V17.3662H40.3448C40.5054 17.3662 40.6594 17.4295 40.7732 17.5423C40.8869 17.6551 40.9512 17.8081 40.9518 17.9679V21.7442C40.9512 21.904 40.8869 22.0571 40.7732 22.1698C40.6594 22.2826 40.5054 22.3459 40.3448 22.3459H36.8343V25.8399C36.8339 25.9184 36.818 25.996 36.7874 26.0683C36.7568 26.1406 36.7121 26.2061 36.6558 26.2612C36.5996 26.3162 36.533 26.3596 36.4599 26.3889C36.3868 26.4182 36.3085 26.4327 36.2297 26.4317ZM33.0426 25.2382H35.6176V21.7442C35.6183 21.5844 35.6825 21.4313 35.7963 21.3186C35.9101 21.2058 36.0641 21.1425 36.2247 21.1425H39.7352V18.5721H36.2297C36.0689 18.5715 35.9148 18.5076 35.8011 18.3944C35.6874 18.2813 35.6233 18.128 35.6226 17.9679V14.464H33.0426V17.958C33.0419 18.1181 32.9778 18.2714 32.864 18.3845C32.7503 18.4977 32.5963 18.5616 32.4355 18.5622H28.925V21.1499H32.4355C32.5961 21.1499 32.7501 21.2132 32.8639 21.326C32.9777 21.4387 33.0419 21.5918 33.0426 21.7516V25.2382Z" fill="#3F0F33"/>
<path d="M55.8676 10.784C55.7201 10.7848 55.5775 10.731 55.4676 10.6331C55.3578 10.5351 55.2884 10.4001 55.2729 10.2541L55.0241 7.71841C55.01 7.57476 54.943 7.4414 54.8359 7.34401C54.7289 7.24663 54.5895 7.19212 54.4444 7.19097H50.5458C50.4001 7.18986 50.2594 7.24359 50.1519 7.34141C50.0444 7.43923 49.978 7.57391 49.9661 7.71841L49.7123 10.2541C49.7055 10.3325 49.683 10.4087 49.6463 10.4784C49.6096 10.5481 49.5594 10.6099 49.4985 10.6601C49.4376 10.7103 49.3673 10.748 49.2917 10.771C49.2161 10.7939 49.1366 10.8018 49.058 10.7939C48.9005 10.7758 48.756 10.6981 48.6546 10.5768C48.5531 10.4556 48.5025 10.3001 48.5131 10.1427L48.7744 7.60944C48.8199 7.17115 49.0268 6.76516 49.3553 6.46977C49.6838 6.17438 50.1105 6.01052 50.5533 6.0098H54.4345C54.8782 6.00717 55.3067 6.1699 55.636 6.46593C55.9652 6.76196 56.1711 7.16987 56.2134 7.60944L56.4622 10.1427C56.4711 10.2211 56.464 10.3006 56.4414 10.3763C56.4187 10.452 56.3809 10.5224 56.3303 10.5832C56.2796 10.644 56.2171 10.694 56.1466 10.7302C56.0761 10.7664 55.999 10.7881 55.9198 10.7939L55.8676 10.784Z" fill="#3F0F33"/>
</g>
<defs>
<clipPath id="clip0_1092_4626">
<rect width="60" height="39.3103" fill="white" transform="translate(17 6)"/>
</clipPath>
</defs>
</svg>
