<svg width="47" height="46" viewBox="0 0 47 46" fill="none" xmlns="http://www.w3.org/2000/svg">
<rect width="33" height="33" rx="2" fill="white"/>
<g clip-path="url(#clip0_1092_4705)">
<path d="M45.0893 9.30078C45.4407 9.30078 45.7778 9.44018 46.0265 9.68839C46.2751 9.93661 46.4151 10.2733 46.4156 10.6246V44.0875C46.4156 44.4392 46.2759 44.7763 46.0272 45.025C45.7784 45.2736 45.4411 45.4133 45.0893 45.4133H21.629C21.2773 45.4133 20.9399 45.2736 20.6912 45.025C20.4425 44.7763 20.3027 44.4392 20.3027 44.0875V9.30078H45.0893Z" fill="#CDBFBA"/>
<path d="M21.8027 6.58496H42.3735C42.7249 6.58547 43.0618 6.72538 43.3101 6.97395C43.5584 7.22252 43.6978 7.55945 43.6978 7.91073V41.3717C43.6981 41.5457 43.664 41.7181 43.5976 41.8789C43.5311 42.0398 43.4336 42.1859 43.3106 42.3091C43.1876 42.4322 43.0415 42.5299 42.8807 42.5965C42.7199 42.6632 42.5476 42.6975 42.3735 42.6975H18.9113C18.5595 42.6975 18.2222 42.5578 17.9734 42.3092C17.7247 42.0605 17.585 41.7233 17.585 41.3717V10.6749L21.8027 6.58496Z" fill="#F9F3F1"/>
<path d="M43.6981 7.91073V41.3736C43.6981 41.7247 43.5586 42.0615 43.3102 42.3097C43.0618 42.558 42.725 42.6975 42.3737 42.6975H40.8066C40.9807 42.6977 41.1532 42.6637 41.3141 42.5973C41.475 42.5308 41.6212 42.4334 41.7444 42.3104C41.8675 42.1875 41.9653 42.0414 42.0319 41.8807C42.0986 41.7199 42.1329 41.5476 42.1329 41.3736V7.91073C42.1329 7.73663 42.0986 7.56422 42.032 7.40337C41.9653 7.24252 41.8676 7.09638 41.7445 6.97327C41.6213 6.85016 41.4751 6.75251 41.3142 6.68589C41.1533 6.61926 40.9808 6.58496 40.8066 6.58496H42.3737C42.7252 6.58547 43.062 6.72538 43.3103 6.97395C43.5586 7.22252 43.6981 7.55945 43.6981 7.91073Z" fill="#EFE2DD"/>
<path d="M21.8027 6.58496L21.7931 10.1783C21.7921 10.3139 21.7375 10.4436 21.6412 10.5392C21.5449 10.6347 21.4148 10.6883 21.2791 10.6883H17.585L21.8027 6.58496Z" fill="#CDBFBA"/>
<path d="M34.4381 17.8115H32.6799C32.5137 17.8115 32.3542 17.7455 32.2367 17.628C32.1191 17.5104 32.0531 17.3511 32.0531 17.1849V15.4274C32.0533 15.3453 32.0374 15.264 32.006 15.1881C31.9747 15.1122 31.9287 15.0432 31.8706 14.9851C31.8125 14.9271 31.7435 14.8811 31.6676 14.8498C31.5917 14.8185 31.5103 14.8025 31.4282 14.8027H29.8554C29.7731 14.8025 29.6917 14.8185 29.6156 14.8497C29.5396 14.881 29.4705 14.927 29.4122 14.985C29.354 15.0431 29.3078 15.112 29.2763 15.1879C29.2448 15.2638 29.2285 15.3452 29.2285 15.4274V17.1849C29.2285 17.3511 29.1625 17.5104 29.0449 17.628C28.9274 17.7455 28.7679 17.8115 28.6017 17.8115H26.8378C26.6715 17.8115 26.5121 17.8775 26.3945 17.995C26.277 18.1125 26.2109 18.2719 26.2109 18.4381V20.0102C26.2109 20.0924 26.2272 20.1738 26.2587 20.2497C26.2902 20.3256 26.3364 20.3946 26.3946 20.4526C26.4529 20.5107 26.522 20.5566 26.5981 20.5879C26.6741 20.6192 26.7555 20.6352 26.8378 20.6349H28.594C28.7603 20.6349 28.9197 20.7009 29.0373 20.8184C29.1548 20.936 29.2209 21.0953 29.2209 21.2615V23.019C29.2209 23.1852 29.2869 23.3445 29.4045 23.4621C29.522 23.5796 29.6815 23.6456 29.8477 23.6456H31.4243C31.5066 23.6456 31.588 23.6294 31.6639 23.5978C31.7399 23.5663 31.8089 23.5201 31.8669 23.4619C31.925 23.4037 31.9709 23.3346 32.0022 23.2586C32.0335 23.1826 32.0495 23.1012 32.0493 23.019V21.2615C32.0493 21.0953 32.1153 20.936 32.2329 20.8184C32.3504 20.7009 32.5099 20.6349 32.6761 20.6349H34.4343C34.5165 20.6352 34.598 20.6192 34.674 20.5879C34.75 20.5566 34.8192 20.5107 34.8774 20.4526C34.9356 20.3946 34.9818 20.3256 35.0134 20.2497C35.0449 20.1738 35.0611 20.0924 35.0611 20.0102V18.4381C35.0611 18.2719 34.9951 18.1125 34.8775 17.995C34.76 17.8775 34.6005 17.8115 34.4343 17.8115H34.4381Z" fill="#EE6161"/>
<path d="M31.1053 20.6348H32.68C32.5978 20.6348 32.5164 20.651 32.4404 20.6825C32.3645 20.714 32.2955 20.7602 32.2375 20.8184C32.1794 20.8766 32.1334 20.9457 32.1021 21.0217C32.0708 21.0977 32.0549 21.1792 32.0551 21.2614V23.0188C32.0551 23.185 31.9891 23.3444 31.8715 23.4619C31.754 23.5794 31.5945 23.6454 31.4283 23.6454H29.8555C30.0211 23.6444 30.1795 23.5779 30.2962 23.4605C30.413 23.3431 30.4785 23.1843 30.4785 23.0188V21.2614C30.4785 21.0952 30.5445 20.9358 30.6621 20.8183C30.7796 20.7008 30.939 20.6348 31.1053 20.6348Z" fill="#E94444"/>
<path d="M32.68 17.8115H31.1053C30.939 17.8115 30.7796 17.7455 30.6621 17.628C30.5445 17.5104 30.4785 17.3511 30.4785 17.1849V15.4293C30.4787 15.3473 30.4628 15.266 30.4316 15.1901C30.4005 15.1142 30.3546 15.0452 30.2968 14.987C30.2389 14.9289 30.1702 14.8827 30.0945 14.851C30.0187 14.8194 29.9375 14.803 29.8555 14.8027H31.4245C31.5907 14.8027 31.7501 14.8687 31.8677 14.9863C31.9852 15.1038 32.0513 15.2631 32.0513 15.4293V17.1849C32.051 17.2671 32.067 17.3485 32.0983 17.4245C32.1296 17.5005 32.1756 17.5696 32.2336 17.6278C32.2917 17.686 32.3607 17.7322 32.4366 17.7637C32.5125 17.7953 32.594 17.8115 32.6762 17.8115H32.68Z" fill="#E94444"/>
<path d="M35.0658 18.4381V20.0103C35.0658 20.0925 35.0495 20.1739 35.018 20.2498C34.9865 20.3257 34.9403 20.3947 34.8821 20.4527C34.8238 20.5107 34.7547 20.5567 34.6787 20.588C34.6026 20.6192 34.5212 20.6352 34.4389 20.635H32.8623C32.9445 20.6352 33.026 20.6192 33.102 20.588C33.1781 20.5567 33.2472 20.5107 33.3054 20.4527C33.3637 20.3947 33.4099 20.3257 33.4414 20.2498C33.4729 20.1739 33.4891 20.0925 33.4891 20.0103V18.4381C33.4891 18.2719 33.4231 18.1126 33.3055 17.995C33.188 17.8775 33.0286 17.8115 32.8623 17.8115H34.4389C34.6052 17.8115 34.7646 17.8775 34.8822 17.995C34.9997 18.1126 35.0658 18.2719 35.0658 18.4381Z" fill="#E94444"/>
<path d="M45.089 8.71454H44.2844V7.91031C44.2844 7.40366 44.0831 6.91777 43.7247 6.55952C43.3663 6.20127 42.8802 6 42.3733 6H21.8025C21.6502 6.00015 21.5037 6.05898 21.3936 6.16428L17.1777 10.2581C17.1209 10.3122 17.0758 10.3775 17.0452 10.4498C17.0147 10.5221 16.9993 10.5999 17 10.6783V33.0997C17.0086 33.2492 17.074 33.3897 17.1829 33.4926C17.2918 33.5954 17.436 33.6527 17.5858 33.6527C17.7356 33.6527 17.8797 33.5954 17.9886 33.4926C18.0975 33.3897 18.163 33.2492 18.1715 33.0997V11.2648L21.277 11.2744C21.5678 11.2739 21.8465 11.1582 22.0521 10.9527C22.2577 10.7471 22.3735 10.4685 22.374 10.1778V7.17102H36.4299V13.2477C36.445 13.7076 36.6384 14.1435 36.9691 14.4635C37.2999 14.7834 37.7421 14.9623 38.2024 14.9623C38.6627 14.9623 39.1049 14.7834 39.4357 14.4635C39.7664 14.1435 39.9598 13.7076 39.9749 13.2477V10.2294C39.9795 10.1497 39.9677 10.0699 39.9403 9.99493C39.913 9.91994 39.8705 9.85131 39.8157 9.79327C39.7609 9.73523 39.6947 9.68901 39.6214 9.65741C39.5481 9.62581 39.4691 9.60949 39.3892 9.60949C39.3093 9.60949 39.2303 9.62581 39.157 9.65741C39.0836 9.68901 39.0175 9.73523 38.9627 9.79327C38.9078 9.85131 38.8654 9.91994 38.838 9.99493C38.8107 10.0699 38.7989 10.1497 38.8034 10.2294V13.2477C38.7948 13.4012 38.7277 13.5455 38.6159 13.6511C38.5042 13.7567 38.3562 13.8156 38.2024 13.8156C38.0486 13.8156 37.9007 13.7567 37.7889 13.6511C37.6771 13.5455 37.61 13.4012 37.6014 13.2477V7.17102H42.3599C42.5561 7.17102 42.7442 7.2489 42.8829 7.38754C43.0216 7.52618 43.0995 7.71424 43.0995 7.91031V16.5831C43.095 16.6628 43.1067 16.7426 43.1341 16.8176C43.1615 16.8926 43.2039 16.9612 43.2587 17.0193C43.3136 17.0773 43.3797 17.1235 43.453 17.1551C43.5264 17.1867 43.6054 17.203 43.6853 17.203C43.7651 17.203 43.8442 17.1867 43.9175 17.1551C43.9909 17.1235 44.057 17.0773 44.1118 17.0193C44.1666 16.9612 44.209 16.8926 44.2364 16.8176C44.2638 16.7426 44.2756 16.6628 44.271 16.5831V9.88557H45.0756C45.2717 9.88557 45.4598 9.96346 45.5985 10.1021C45.7372 10.2408 45.8152 10.4288 45.8152 10.6249V44.0878C45.8152 44.2839 45.7372 44.4719 45.5985 44.6105C45.4598 44.7492 45.2717 44.8271 45.0756 44.8271H21.6286C21.4325 44.8271 21.2444 44.7492 21.1057 44.6105C20.967 44.4719 20.8891 44.2839 20.8891 44.0878V43.2835H42.3733C42.8802 43.2835 43.3663 43.0823 43.7247 42.724C44.0831 42.3658 44.2844 41.8799 44.2844 41.3732V19.2919C44.289 19.2122 44.2772 19.1324 44.2498 19.0574C44.2224 18.9824 44.18 18.9138 44.1252 18.8558C44.0703 18.7978 44.0042 18.7515 43.9309 18.7199C43.8575 18.6883 43.7785 18.672 43.6986 18.672C43.6188 18.672 43.5398 18.6883 43.4664 18.7199C43.3931 18.7515 43.327 18.7978 43.2721 18.8558C43.2173 18.9138 43.1749 18.9824 43.1475 19.0574C43.1201 19.1324 43.1084 19.2122 43.1129 19.2919V41.3713C43.1129 41.5675 43.035 41.7558 42.8964 41.8947C42.7578 42.0337 42.5697 42.112 42.3733 42.1125H18.9111C18.7148 42.112 18.5266 42.0337 18.388 41.8947C18.2494 41.7558 18.1715 41.5675 18.1715 41.3713V35.8314C18.163 35.6819 18.0975 35.5413 17.9886 35.4385C17.8797 35.3357 17.7356 35.2784 17.5858 35.2784C17.436 35.2784 17.2918 35.3357 17.1829 35.4385C17.074 35.5413 17.0086 35.6819 17 35.8314V41.3713C17 41.8779 17.2014 42.3639 17.5598 42.7221C17.9182 43.0804 18.4042 43.2816 18.9111 43.2816H19.7157V44.0859C19.7157 44.5925 19.917 45.0784 20.2754 45.4367C20.6338 45.7949 21.1199 45.9962 21.6267 45.9962H45.089C45.5958 45.9962 46.0819 45.7949 46.4403 45.4367C46.7987 45.0784 47 44.5925 47 44.0859V10.6249C47 10.1182 46.7987 9.63232 46.4403 9.27407C46.0819 8.91581 45.5958 8.71454 45.089 8.71454ZM21.2006 10.1014H19.02L20.4705 8.69545L21.2063 7.97908L21.2006 10.1014Z" fill="black"/>
<path d="M31.4251 14.2158H29.8523C29.5309 14.2163 29.2228 14.344 28.9954 14.571C28.768 14.798 28.6398 15.1057 28.6388 15.427V17.1844C28.6388 17.1897 28.6377 17.1949 28.6357 17.1998C28.6337 17.2047 28.6307 17.2091 28.627 17.2128C28.6233 17.2165 28.6189 17.2195 28.614 17.2215C28.6091 17.2235 28.6039 17.2246 28.5986 17.2246H26.8385C26.5168 17.2251 26.2085 17.353 25.981 17.5804C25.7535 17.8078 25.6255 18.116 25.625 18.4376V20.0098C25.626 20.331 25.7543 20.6388 25.9817 20.8657C26.2091 21.0927 26.5172 21.2204 26.8385 21.2209H28.5948C28.6054 21.2209 28.6157 21.2251 28.6232 21.2327C28.6307 21.2402 28.6349 21.2504 28.6349 21.261V23.0185C28.6354 23.3399 28.7635 23.648 28.991 23.875C29.2186 24.1021 29.5269 24.2297 29.8485 24.2297H31.4251C31.7464 24.2297 32.0546 24.1021 32.2818 23.8749C32.5091 23.6478 32.6367 23.3397 32.6367 23.0185V21.261C32.6372 21.2506 32.6416 21.2406 32.649 21.2332C32.6564 21.2258 32.6664 21.2214 32.6769 21.2209H34.435C34.7562 21.2204 35.0641 21.0926 35.2912 20.8656C35.5183 20.6386 35.6461 20.3308 35.6466 20.0098V18.4376C35.6466 18.1162 35.5191 17.808 35.2919 17.5805C35.0647 17.3531 34.7566 17.2251 34.435 17.2246H32.6769C32.6716 17.2246 32.6664 17.2235 32.6615 17.2215C32.6566 17.2195 32.6522 17.2165 32.6485 17.2128C32.6447 17.2091 32.6418 17.2047 32.6398 17.1998C32.6378 17.1949 32.6367 17.1897 32.6367 17.1844V15.427C32.6362 15.1059 32.5084 14.7981 32.2813 14.5711C32.0542 14.3441 31.7463 14.2163 31.4251 14.2158ZM32.6769 18.3956H34.435C34.4405 18.3956 34.4459 18.3967 34.4509 18.3988C34.4559 18.4009 34.4604 18.4041 34.4641 18.408C34.4679 18.4119 34.4708 18.4166 34.4727 18.4217C34.4746 18.4267 34.4754 18.4322 34.4752 18.4376V20.0098C34.4752 20.0204 34.4709 20.0306 34.4634 20.0381C34.4559 20.0457 34.4457 20.0499 34.435 20.0499H32.6769C32.3555 20.0499 32.0473 20.1775 31.8201 20.4046C31.5929 20.6318 31.4652 20.9398 31.4652 21.261V23.0185C31.4652 23.0292 31.461 23.0394 31.4535 23.0469C31.4459 23.0544 31.4357 23.0586 31.4251 23.0586H29.8523C29.8416 23.0586 29.8314 23.0544 29.8239 23.0469C29.8164 23.0394 29.8122 23.0292 29.8122 23.0185V21.261C29.8117 20.9397 29.6836 20.6316 29.4561 20.4045C29.2285 20.1774 28.9201 20.0499 28.5986 20.0499H26.8385C26.8277 20.0499 26.8173 20.0458 26.8095 20.0383C26.8016 20.0308 26.797 20.0206 26.7965 20.0098V18.4376C26.7965 18.4265 26.8009 18.4158 26.8088 18.4079C26.8167 18.4 26.8274 18.3956 26.8385 18.3956H28.5948C28.9163 18.3956 29.2247 18.268 29.4522 18.041C29.6798 17.8139 29.8078 17.5058 29.8083 17.1844V15.427C29.8083 15.4163 29.8126 15.4061 29.8201 15.3986C29.8276 15.3911 29.8378 15.3868 29.8485 15.3868H31.4251C31.4356 15.3873 31.4455 15.3917 31.453 15.3991C31.4604 15.4065 31.4648 15.4165 31.4652 15.427V17.1844C31.4652 17.5056 31.5929 17.8137 31.8201 18.0408C32.0473 18.268 32.3555 18.3956 32.6769 18.3956Z" fill="black"/>
<path d="M28.5085 26.8222H21.7261C21.5765 26.8308 21.4359 26.8962 21.333 27.0051C21.2302 27.1139 21.1729 27.258 21.1729 27.4077C21.1729 27.5575 21.2302 27.7016 21.333 27.8104C21.4359 27.9193 21.5765 27.9847 21.7261 27.9933H28.5085C28.5882 27.9978 28.668 27.986 28.7431 27.9587C28.8181 27.9313 28.8867 27.8889 28.9448 27.8341C29.0029 27.7793 29.0491 27.7132 29.0807 27.6399C29.1123 27.5666 29.1286 27.4876 29.1286 27.4077C29.1286 27.3279 29.1123 27.2489 29.0807 27.1756C29.0491 27.1023 29.0029 27.0362 28.9448 26.9814C28.8867 26.9266 28.8181 26.8842 28.7431 26.8568C28.668 26.8295 28.5882 26.8177 28.5085 26.8222Z" fill="black"/>
<path d="M31.9985 27.9933H39.5549C39.6347 27.9978 39.7145 27.986 39.7895 27.9587C39.8646 27.9313 39.9332 27.8889 39.9912 27.8341C40.0493 27.7793 40.0956 27.7132 40.1272 27.6399C40.1588 27.5666 40.1751 27.4876 40.1751 27.4077C40.1751 27.3279 40.1588 27.2489 40.1272 27.1756C40.0956 27.1023 40.0493 27.0362 39.9912 26.9814C39.9332 26.9266 39.8646 26.8842 39.7895 26.8568C39.7145 26.8295 39.6347 26.8177 39.5549 26.8222H31.9985C31.849 26.8308 31.7084 26.8962 31.6055 27.0051C31.5026 27.1139 31.4453 27.258 31.4453 27.4077C31.4453 27.5575 31.5026 27.7016 31.6055 27.8104C31.7084 27.9193 31.849 27.9847 31.9985 27.9933Z" fill="black"/>
<path d="M28.5085 29.9844H21.7261C21.5765 29.9929 21.4359 30.0583 21.333 30.1672C21.2302 30.276 21.1729 30.4201 21.1729 30.5699C21.1729 30.7196 21.2302 30.8637 21.333 30.9726C21.4359 31.0814 21.5765 31.1468 21.7261 31.1554H28.5085C28.5882 31.1599 28.668 31.1482 28.7431 31.1208C28.8181 31.0934 28.8867 31.051 28.9448 30.9962C29.0029 30.9414 29.0491 30.8753 29.0807 30.802C29.1123 30.7287 29.1286 30.6497 29.1286 30.5699C29.1286 30.49 29.1123 30.411 29.0807 30.3377C29.0491 30.2644 29.0029 30.1983 28.9448 30.1435C28.8867 30.0887 28.8181 30.0463 28.7431 30.0189C28.668 29.9916 28.5882 29.9798 28.5085 29.9844Z" fill="black"/>
<path d="M39.5568 29.9844H31.9985C31.849 29.9929 31.7084 30.0583 31.6055 30.1672C31.5026 30.276 31.4453 30.4201 31.4453 30.5699C31.4453 30.7196 31.5026 30.8637 31.6055 30.9726C31.7084 31.0814 31.849 31.1468 31.9985 31.1554H39.5549C39.6347 31.1599 39.7145 31.1482 39.7895 31.1208C39.8646 31.0934 39.9332 31.051 39.9912 30.9962C40.0493 30.9414 40.0956 30.8753 40.1272 30.802C40.1588 30.7287 40.1751 30.6497 40.1751 30.5699C40.1751 30.49 40.1588 30.411 40.1272 30.3377C40.0956 30.2644 40.0493 30.1983 39.9912 30.1435C39.9332 30.0887 39.8646 30.0463 39.7895 30.0189C39.7145 29.9916 39.6347 29.9798 39.5549 29.9844H39.5568Z" fill="black"/>
<path d="M28.5085 33.1455H21.7261C21.5765 33.154 21.4359 33.2194 21.333 33.3283C21.2302 33.4372 21.1729 33.5812 21.1729 33.731C21.1729 33.8807 21.2302 34.0248 21.333 34.1337C21.4359 34.2426 21.5765 34.308 21.7261 34.3165H28.5085C28.5882 34.3211 28.668 34.3093 28.7431 34.2819C28.8181 34.2546 28.8867 34.2122 28.9448 34.1574C29.0029 34.1025 29.0491 34.0364 29.0807 33.9631C29.1123 33.8898 29.1286 33.8108 29.1286 33.731C29.1286 33.6512 29.1123 33.5722 29.0807 33.4989C29.0491 33.4256 29.0029 33.3595 28.9448 33.3046C28.8867 33.2498 28.8181 33.2074 28.7431 33.1801C28.668 33.1527 28.5882 33.1409 28.5085 33.1455Z" fill="black"/>
<path d="M39.5568 33.1455H31.9985C31.849 33.154 31.7084 33.2194 31.6055 33.3283C31.5026 33.4372 31.4453 33.5812 31.4453 33.731C31.4453 33.8807 31.5026 34.0248 31.6055 34.1337C31.7084 34.2426 31.849 34.308 31.9985 34.3165H39.5549C39.6347 34.3211 39.7145 34.3093 39.7895 34.2819C39.8646 34.2546 39.9332 34.2122 39.9912 34.1574C40.0493 34.1025 40.0956 34.0364 40.1272 33.9631C40.1588 33.8898 40.1751 33.8108 40.1751 33.731C40.1751 33.6512 40.1588 33.5722 40.1272 33.4989C40.0956 33.4256 40.0493 33.3595 39.9912 33.3046C39.9332 33.2498 39.8646 33.2074 39.7895 33.1801C39.7145 33.1527 39.6347 33.1409 39.5549 33.1455H39.5568Z" fill="black"/>
<path d="M28.5085 36.3066H21.7261C21.5765 36.3152 21.4359 36.3806 21.333 36.4894C21.2302 36.5983 21.1729 36.7424 21.1729 36.8921C21.1729 37.0419 21.2302 37.186 21.333 37.2948C21.4359 37.4037 21.5765 37.4691 21.7261 37.4776H28.5085C28.5882 37.4822 28.668 37.4704 28.7431 37.4431C28.8181 37.4157 28.8867 37.3733 28.9448 37.3185C29.0029 37.2637 29.0491 37.1976 29.0807 37.1243C29.1123 37.0509 29.1286 36.972 29.1286 36.8921C29.1286 36.8123 29.1123 36.7333 29.0807 36.66C29.0491 36.5867 29.0029 36.5206 28.9448 36.4658C28.8867 36.4109 28.8181 36.3685 28.7431 36.3412C28.668 36.3138 28.5882 36.3021 28.5085 36.3066Z" fill="black"/>
<path d="M39.5568 36.3066H31.9985C31.849 36.3152 31.7084 36.3806 31.6055 36.4894C31.5026 36.5983 31.4453 36.7424 31.4453 36.8921C31.4453 37.0419 31.5026 37.186 31.6055 37.2948C31.7084 37.4037 31.849 37.4691 31.9985 37.4776H39.5549C39.6347 37.4822 39.7145 37.4704 39.7895 37.4431C39.8646 37.4157 39.9332 37.3733 39.9912 37.3185C40.0493 37.2637 40.0956 37.1976 40.1272 37.1243C40.1588 37.0509 40.1751 36.972 40.1751 36.8921C40.1751 36.8123 40.1588 36.7333 40.1272 36.66C40.0956 36.5867 40.0493 36.5206 39.9912 36.4658C39.9332 36.4109 39.8646 36.3685 39.7895 36.3412C39.7145 36.3138 39.6347 36.3021 39.5549 36.3066H39.5568Z" fill="black"/>
</g>
<defs>
<clipPath id="clip0_1092_4705">
<rect width="30" height="40" fill="white" transform="translate(17 6)"/>
</clipPath>
</defs>
</svg>
