<svg width="74" height="65" viewBox="0 0 74 65" fill="none" xmlns="http://www.w3.org/2000/svg">
<g opacity="0.12" clip-path="url(#clip0_808_516)">
<path d="M63.0159 31.0324H66.7167V27.3184H70.2992V31.0324H74V34.6277H70.2992V38.3417H66.7167V34.6277H63.0159V31.0324Z" fill="url(#paint0_linear_808_516)"/>
<path d="M37.5884 24.7189V38.6928H23.6592V49.8348H37.5884V63.8087H48.6651V49.8348H62.6098V38.6928H48.6651V24.7189H37.5679M36.3754 23.5273H49.873V37.5012H63.8022V51.0264H49.873V65.0002H36.396V51.0264H22.4513V37.5012H36.396V23.5273H36.3754Z" fill="url(#paint1_linear_808_516)"/>
<path d="M7.09313 27.0447V33.6061H0.555099V38.8314H7.09313V45.3928H12.305V38.8314H18.8534V33.6061H12.3153V27.0447H7.10342M6.5483 26.4824H12.8704V33.0438H19.3982V39.3937H12.8602V45.9551H6.51746V39.3937H-0.0205727V33.0438H6.51746V26.4824H6.5483Z" fill="url(#paint2_linear_808_516)"/>
<path d="M39.1511 7.10322V12.0862H34.1808V16.0632H39.1511V21.0513H43.114V16.0632H48.0844V12.0862H43.114V7.09806H39.1511M38.7245 6.66992H43.5252V11.658H48.511V16.4862H43.5252V21.4795H38.7091V16.4862H33.7593V11.658H38.7296V6.66992H38.7245Z" fill="url(#paint3_linear_808_516)"/>
<path d="M49.6727 8.21205H57.8555V0H65.771V8.21205H73.9539V16.1559H65.771V24.3679H57.8555V16.1559H49.6727V8.21205Z" fill="url(#paint4_linear_808_516)"/>
<path d="M22.7466 16.0121C22.4822 15.3758 22.7818 14.6448 23.4158 14.3794C24.0499 14.114 24.7782 14.4147 25.0427 15.051C25.3071 15.6873 25.0075 16.4183 24.3735 16.6837C23.7394 16.949 23.0111 16.6484 22.7466 16.0121Z" fill="url(#paint5_linear_808_516)"/>
</g>
<defs>
<linearGradient id="paint0_linear_808_516" x1="63.0159" y1="32.8326" x2="74" y2="32.8326" gradientUnits="userSpaceOnUse">
<stop stop-color="#0096FF"/>
<stop offset="0.63" stop-color="#36C2FF"/>
<stop offset="1" stop-color="#50D7FF"/>
</linearGradient>
<linearGradient id="paint1_linear_808_516" x1="22.4718" y1="44.2638" x2="63.8022" y2="44.2638" gradientUnits="userSpaceOnUse">
<stop stop-color="#0096FF"/>
<stop offset="0.63" stop-color="#36C2FF"/>
<stop offset="1" stop-color="#50D7FF"/>
</linearGradient>
<linearGradient id="paint2_linear_808_516" x1="-1.27017e-05" y1="36.2213" x2="19.3982" y2="36.2213" gradientUnits="userSpaceOnUse">
<stop stop-color="#0096FF"/>
<stop offset="0.63" stop-color="#36C2FF"/>
<stop offset="1" stop-color="#50D7FF"/>
</linearGradient>
<linearGradient id="paint3_linear_808_516" x1="33.7542" y1="14.0773" x2="48.511" y2="14.0773" gradientUnits="userSpaceOnUse">
<stop stop-color="#0096FF"/>
<stop offset="0.63" stop-color="#36C2FF"/>
<stop offset="1" stop-color="#50D7FF"/>
</linearGradient>
<linearGradient id="paint4_linear_808_516" x1="49.6727" y1="12.184" x2="73.9539" y2="12.184" gradientUnits="userSpaceOnUse">
<stop stop-color="#0096FF"/>
<stop offset="0.63" stop-color="#36C2FF"/>
<stop offset="1" stop-color="#50D7FF"/>
</linearGradient>
<linearGradient id="paint5_linear_808_516" x1="22.6526" y1="15.5338" x2="25.1403" y2="15.5338" gradientUnits="userSpaceOnUse">
<stop stop-color="#0096FF"/>
<stop offset="0.63" stop-color="#36C2FF"/>
<stop offset="1" stop-color="#50D7FF"/>
</linearGradient>
<clipPath id="clip0_808_516">
<rect width="74" height="65" fill="white" transform="matrix(-1 0 0 1 74 0)"/>
</clipPath>
</defs>
</svg>
