<svg xmlns="http://www.w3.org/2000/svg" id="Layer_1" data-name="Layer 1" viewBox="0 0 1515.87 286.94"><defs><style>.cls-1,.cls-3,.cls-4,.cls-5{fill:none;stroke-width:2px}.cls-1{stroke:#fbdb8d}.cls-3{stroke:#81b0d0}.cls-4{stroke:#e2edf6}.cls-5{stroke:#649ec6}.cls-6{fill:#f7b71a}.cls-8{fill:#0361a0}.cls-9{fill:#c4dbec}</style></defs><path d="M174.55 1.4c-.55 6.94-1.69 14.09-4.34 20.6a.38.38 0 0 0 .21.5h.08a20.51 20.51 0 0 0 7.41 0 .49.49 0 0 0 .4-.57.56.56 0 0 0 0-.12c-3.31-6.81-2.7-13.15-3.6-20.42-.06-.52-.12-.52-.16 0" class="cls-1"></path><path d="M126.79 87.85c.87-30.58 29.2-53.15 59.8-45.38a47.4 47.4 0 0 1 35.82 45 .76.76 0 0 0 .85.83l9.72.2a.2.2 0 0 0 .23-.2c1.11-11.12 11.26-16.3 20.2-20.5a41.75 41.75 0 0 1 6.9-2.22c.25-.06.24-.12 0-.15a6.76 6.76 0 0 0-2.07-.06 61.84 61.84 0 0 1-17 1.25c-14.24-.92-21.4-10.87-15.3-24.1a57 57 0 0 1 11.42-16.29.27.27 0 0 0 .08-.23v-.17c0-.16-.06-.2-.2-.12a9.6 9.6 0 0 0-1.63 1.16c-6.56 6.22-19.07 14.61-28.76 11.74-6.74-2-9.74-8.21-10.7-14.86-.77-5.34 0-10 .31-15 .13-1.86.9-3.7 1.1-5.68.08-.79 0-.81-.29-.06-1.84 5-3.44 9.79-6.47 14.67-5.51 8.86-14.78 16.19-25.18 8.63-7.13-5.17-11.59-15.24-14-23.46a.33.33 0 0 0-.41-.23.48.48 0 0 0-.28.59c2.59 10.31 4.8 32.82-10.39 35.71-10.17 1.99-21.84-6.52-28.8-12.92a.82.82 0 0 0-.64-.23c-.2 0-.23.1-.09.25 5.93 6.35 13.57 16.26 13.88 24.41.72 19.05-23.45 17.62-35.51 15a.84.84 0 0 0-.71.09c-.13.09-.12.16 0 .2 10.92 3 25.11 9.79 26.72 22.25a.36.36 0 0 0 .4.36h10.43a.54.54 0 0 0 .54-.52" style="stroke:#fea382;fill:none;stroke-width:2px"></path><path d="M218.66 12.93c-3.68 4.88-8 11.57-13.2 14.83-3.28 2 4.66 4.85 5.68 5.05a.7.7 0 0 0 .83-.54.86.86 0 0 0 0-.16 17.48 17.48 0 0 1 1.35-7.65q1.11-2.58 5.48-11.44c.27-.55.22-.59-.15-.09M144.76 29.36a.87.87 0 0 0 .07-1.26.64.64 0 0 0-.15-.13c-5.67-4-8.85-9.44-12.46-15.11-.34-.53-.39-.5-.16.09q2.26 5.82 4.43 11.65a36.46 36.46 0 0 1 1.32 7.25.55.55 0 0 0 .35.46c1.6.63 5.44-1.92 6.6-3M98.64 43.85c6 4.06 11.5 8.31 15.84 14a.51.51 0 0 0 .71.09.27.27 0 0 0 .08-.07 22.2 22.2 0 0 0 3.79-6.24.27.27 0 0 0-.17-.36h-.06c-7.6-1.08-13.4-4.24-20-7.69a.16.16 0 0 0-.2 0 .15.15 0 0 0 0 .19M234.74 58.51a48.39 48.39 0 0 1 14.12-12c.86-.48 1.71-1 2.55-1.55s.69-.55-.11-.22c-7 2.89-13.34 5.75-20.9 6.9-.16 0-.21.11-.15.26a28 28 0 0 0 4 6.9.22.22 0 0 0 .3 0 .23.23 0 0 0 .08-.11l.05-.14a.23.23 0 0 1 .06-.12" class="cls-1"></path><path d="M190.3 77.13a16.48 16.48 0 0 0-33 0 16.37 16.37 0 0 0 16.53 16.27 16.37 16.37 0 0 0 16.47-16.27M175.74 105.37q0-1.26 1-.57l2.56 1.67a.55.55 0 0 0 .5.06 27.71 27.71 0 0 0 7.49-3.86c1.71-1.25-.26-3.88-1.09-4.9a.62.62 0 0 0-.49-.23c-2-.06-5.38 1.74-7.12 2.33a.32.32 0 0 1-.44-.19c-.94-2.05-2.46-5.13-5.26-3-2 1.5-.85 3.43.15 5.1a.38.38 0 0 1-.13.51h-.09l-3.92 1.2a.75.75 0 0 0-.44.32c-2.22 3.33.43 6.19 3.51 7.41 1.81.73 3.42.11 4.89-1a.8.8 0 0 0 .31-.47 3 3 0 0 0-1.18-3.43.56.56 0 0 1-.25-.46v-.56" class="cls-3"></path><path d="M33.78 114.53a1.27 1.27 0 0 1-.16.57.51.51 0 0 1-.44.26c-3.63.18-6.93 0-10.77.45a28.18 28.18 0 0 1-6.36 0c-.26 0-.35.08-.28.32.37 1.36 1.22 2 2.11 3q62.46 68.1 124.85 136.28a38.21 38.21 0 0 0 7.62 6.7" class="cls-4"></path><path d="M150.35 262.09a4.87 4.87 0 0 0 .75 1.48 56.55 56.55 0 0 1 6.2 6.63.57.57 0 0 0 .44.23 5.19 5.19 0 0 0 4.14-1.52" class="cls-3"></path><path d="M161.88 268.91a.75.75 0 0 1 .6.19.5.5 0 0 1 .17.47l-.08.57" class="cls-4"></path><path d="M162.57 270.14a2.84 2.84 0 0 0-1.43 5.25 40 40 0 0 1 4.21 3.48.46.46 0 0 0 .46.11 8.65 8.65 0 0 0 3.92-2 .84.84 0 0 0 .26-.57l.11-3.09a.7.7 0 0 1 .22-.51l1.54-1.53" class="cls-3"></path><path d="m171.86 271.24 1.69 1.52" class="cls-4"></path><path d="M173.55 272.76a7.72 7.72 0 0 0 0 4.26.27.27 0 0 1-.22.39c-2.63.69-3.56.77-4.83 3.32" class="cls-3"></path><path d="m168.54 280.73-1.08-.27c-.4-.1-.44 0-.13.25l1.21 1.07" class="cls-4"></path><path d="M168.54 281.78a8.37 8.37 0 0 0 3.62 3.17" class="cls-3"></path><path d="M172.16 285a1.18 1.18 0 0 0 .58.91.52.52 0 0 0 .47 0l1-.38" class="cls-4"></path><path d="M174.22 285.52c2.41-.65 5.3-.95 4.7-4.4" class="cls-3"></path><path d="M178.92 281.12q2.36-2.24 4.77-4.44t4.62-4.57q70.91-77.46 141.85-154.89a4.09 4.09 0 0 0 .77-1.77.15.15 0 0 0-.11-.19c-.41-.17-.25-.73.06-.86" class="cls-4"></path><path d="M330.88 114.4c3.74 0 10.79 1 13.36-2.13a5.69 5.69 0 0 0-1.07-8.26c-1.64-1.14-3.91-1.1-5.91-1.1H214.8a19.15 19.15 0 0 0-5.47.5c-3.4 1.24-5.91 5.5-4.05 8.93 1.36 2.52 4.05 5.45 5.53 8A42.92 42.92 0 0 1 216.7 144c-.25 6.49 2 11 9.51 11.18" class="cls-3"></path><path d="M226.21 155.19c-.49 1.21-.58 2.46-1.07 3.58-5.92 13.5-13.38 23.6-26.73 30.67a.53.53 0 0 0-.3.46 2.33 2.33 0 0 1-1.25 2.06" class="cls-4"></path><path d="m196.86 192-.05-1.18a.4.4 0 0 0-.27-.38c-2-.79-4.06-1.21-4-3.74 0-4.36.48-8.89-5.28-9.77a.31.31 0 0 1-.29-.44l.56-1.87a.83.83 0 0 0 0-.41 7.59 7.59 0 0 0-.75-2.16.75.75 0 0 0-.47-.38 4.75 4.75 0 0 0-3.2.15.67.67 0 0 0-.37.4l-1.5 4.31a.36.36 0 0 1-.45.22.46.46 0 0 1-.18-.13c-3.43-4.65-8.63-4.07-13.68-5.91a.56.56 0 0 0-.49 0 2.92 2.92 0 0 0-1.62 1.72c-.91 3.45-2.73 8.17-2.93 11.62a.5.5 0 0 0 .22.45c2.7 1.91 6.3 2.66 9.62 3.2 3.82.63 5.17-.72 6.13-4.17a.59.59 0 0 1 .38-.42 2.86 2.86 0 0 1 2.26 0 .61.61 0 0 1 .38.42c.49 1.77.54 3.24 2 4.57l5.91 5.27" class="cls-3"></path><path d="m188.8 193.36-.66 1a.51.51 0 0 1-.36.24 1.26 1.26 0 0 0-.81.6" class="cls-4"></path><path d="M187 195.17c-1.27-.68-3.76-3.24-5.17-3.14a.62.62 0 0 0-.5.29l-3.4 5.09a.4.4 0 0 1-.36.2c-2.41 0-2-3.36-1.93-4.85a1.39 1.39 0 0 0-.79-1.3 117.09 117.09 0 0 0-14.92-6.06.91.91 0 0 0-1.15.57 1 1 0 0 0 0 .17 16.21 16.21 0 0 1-2.59 7" class="cls-3"></path><path d="M156.12 193.18q-26.76-10.11-35.63-37a.07.07 0 0 1 .05-.09l.24-.07c.26-.09.25-.16 0-.19h-.21a.11.11 0 0 1-.11-.12.61.61 0 0 1 .13-.53" class="cls-4"></path><path d="M120.57 155.19a9 9 0 0 0 8.06-4.08c1.42-2.14 1-5.83 1-8.29.12-10.37 2.86-19.24 9.33-27.45a13.93 13.93 0 0 0 2.17-3.36c1.78-5-2.13-9.13-7.15-9.13H6.92c-6.92 0-8.13 9.53-1.73 11.29 2 .56 5 0 7.38.12 7.08.28 14.13.23 21.21.24" class="cls-3"></path><path d="M120.57 155.19H70.92a15.79 15.79 0 0 1-4.89-.52 5.64 5.64 0 0 1-.14-10.41 15.14 15.14 0 0 1 5.18-.58h46.55a.25.25 0 0 0 .28-.26l.4-8.23c0-.19-.08-.29-.29-.29q-51.92.08-73.51 0-4.81 0-6.27-3.81a5.62 5.62 0 0 1 2.46-6.9 10.15 10.15 0 0 1 4.62-.78h53.41c5.56 0 14.68-.24 22.08.06a.42.42 0 0 0 .43-.25l3.91-7.91a.66.66 0 0 0-.32-.9.63.63 0 0 0-.33-.06c-5.27.31-11.56.06-15.52 0H36.05c-.66 0-1.5.21-2.27.15M156.12 193.18l-2.41 5.16a.53.53 0 0 0 .27.72q5.69 2.4 11.51 5c2.71 1.21 4.85.12 7.71-1.23a.8.8 0 0 1 .55 0c4.39 1.18 12.12 16.55 17.27 8.57.95-1.48 2.07-4.81.48-6.15-1-.83-2.88-.51-4.11-.81-2.27-.55-3-2.86-2.23-4.88a4.49 4.49 0 0 1 2-1.95.64.64 0 0 0 .3-.42 2.13 2.13 0 0 0-.52-2M188.8 193.36c1.21 1.15 4.64 4.38 6.21 2.2a13.09 13.09 0 0 0 1.85-3.6M178.92 281.12l-.82-1.67a.4.4 0 0 1 .08-.49 29.24 29.24 0 0 0 4.82-5.76.62.62 0 0 0 0-.59 2.64 2.64 0 0 0-2.23-1.48.85.85 0 0 0-.79.37l-.98 1.56a.32.32 0 0 1-.47.11c-1.66-.89-3.4-1.79-4.94-.41M171.86 271.24c1.59-1.31 5.22-2.93 4.68-5.39a.88.88 0 0 0-1-.67h-.16c-2.19.9-4.26 2.65-6.17 0a.46.46 0 0 0-.49-.19c-2.46.46-1.83 2.56-1 4.13a.68.68 0 0 1-.3.91.71.71 0 0 1-.32.07h-4.46M161.88 268.91l1.4-1.17a.44.44 0 0 0 .16-.51l-.67-2.32a1.18 1.18 0 0 1 .69-1.43 91.52 91.52 0 0 1 9-3.22c1-.32 2-1.06 2-2.14-.14-3.42-4.34-1.06-5.81-.55a.45.45 0 0 1-.52-.13c-1.28-1.4-2.93-4.27-5.62-3.77a.49.49 0 0 0-.37.31c-.89 2.09.27 3.39 1.15 5.14a.43.43 0 0 1-.05.47c-1.37 1.78-2.76-1.62-3.25-2.45a.84.84 0 0 0-1.15-.31 19.22 19.22 0 0 1-5.83 2.48 4.17 4.17 0 0 0-2.66 2.76M330.88 114.4l-110 .12c-.28 0-.35.12-.19.35a41.11 41.11 0 0 1 4.05 7.82.74.74 0 0 0 .41.42c1.28.58 2.72.16 3.74.17q36.18.27 65.51.09c3.23 0 8.59-.54 11 .62a5.58 5.58 0 0 1 .27 9.93 11.62 11.62 0 0 1-5.42 1q-35.65 0-71.8-.08a.4.4 0 0 0-.41.4l.31 7.87a.5.5 0 0 0 .56.53h46.58a15.41 15.41 0 0 1 4.73.5c6.15 2.24 4 11-2.57 11h-51.43M174.22 285.52a5 5 0 0 1-2.06-.57M168.54 281.78v-1" class="cls-5"></path><path d="m180.85 114-2.28-2.24a.4.4 0 0 0-.52-.07c-2.07 1.12-3.9.39-5 3a2.21 2.21 0 0 0 0 1.6c1.67 4.81 4.09 7.5 9.48 5.5a1.35 1.35 0 0 0 .89-1.22l.13-3.09a1 1 0 0 1 1.56-.81 10.57 10.57 0 0 1 2.89 2.53.87.87 0 0 0 .47.32c1.86.57 12.44 2.65 9.87-2.16-.86-1.63-6.91-3-8.74-3.36a.33.33 0 0 1-.29-.33l-.21-4.65a.34.34 0 0 0-.31-.36 11.86 11.86 0 0 0-5.1.19.62.62 0 0 0-.45.38l-2 4.7c-.09.22-.22.24-.39.07M184 127.43l-2.72-2.09a.89.89 0 0 0-.61-.19c-2.11.07-5.71.72-6.54 3.06-.55 1.56 1.32 7.71 2.77 8.58s5.5-.93 7.91-1.83a.38.38 0 0 0 .26-.35l.22-4.16a.39.39 0 0 1 .42-.42l.69-.06a.57.57 0 0 1 .49.2c1.54 1.77.88 3.23 3.54 4.14 1.12.38 14.55 5.43 13.25 1.31-.74-2.35-8.28-5.64-10.32-6.55a.51.51 0 0 1-.31-.39c-.24-1.39-.66-6-3-6.27-3.16-.32-5.54 1.19-5.16 4.55a.53.53 0 0 1-.47.58.58.58 0 0 1-.38-.11" class="cls-3"></path><path d="M172.63 148.18c-2.08 3 .66 3.76 3 2.85a10.85 10.85 0 0 1 8.66.62c.18.1.3 0 .36-.14l1.28-3.95a.74.74 0 0 1 .41-.47 4.58 4.58 0 0 1 3.54-.13.64.64 0 0 1 .41.36 12.66 12.66 0 0 1 1.06 3.45c.28 1.83 5.83 5.09 7.58 6.06s2.62 1.58 4.52 1c.55-.18.64-.49.26-.93l-6.34-7.26a.25.25 0 0 1 0-.38c2-2.28 5.09-4.49 1.13-7.29a2.89 2.89 0 0 0-3-.14 1.24 1.24 0 0 1-1.63-.62.61.61 0 0 1 0-.12l-1.05-3.2a.65.65 0 0 0-.46-.45 5.77 5.77 0 0 0-2.83 0 .62.62 0 0 0-.43.36c-.43.94-.79 3.84-2.56 3-.86-.41-1.15-1.71-1.45-2.6a.55.55 0 0 0-.35-.36 4.52 4.52 0 0 0-2-.38c-3.6.6-7.69 0-10.4 2.76a.3.3 0 0 0 0 .41c1.58 2.38 2.13 5.16.4 7.66" class="cls-3"></path><path d="m184.29 157.68-.76-.3a.63.63 0 0 1-.39-.46c-.33-1.64-1.09-2.54-2.92-2.58l-7.62-.16a1.16 1.16 0 0 0-1.17.95c-.49 2.63-1 5.4-1.56 8.31-.37 2-1.43 3.43-2.2 5.3a.42.42 0 0 0 .24.55h.11q6.09.63 12.3.82c2 .06 2.11-4.13 2.84-5.57a.9.9 0 0 1 .38-.37c1.21-.61 4.39-1.1 3.81 1.38-.44 1.92-1.65 4.77.92 5.83s5.32 1.9 8 3.09c2.14.94 6.18 1.43 6.17-2.17 0-2.61-3.26-4.52-5.56-5a.64.64 0 0 1-.52-.75.88.88 0 0 1 0-.15c.53-1.2 2.18-3.36 1.61-4.58-1.19-2.53-3.16-3.39-5.61-4.46a.72.72 0 0 1-.38-.39c-.85-1.91-3.25-5.94-5.91-4a.74.74 0 0 0-.28.41l-1.12 4a.31.31 0 0 1-.47.23M724.84 178.35a101.22 101.22 0 0 0 19.53 12.14c24.5 11.63-2.34 32.54-18.27 12.26-.42-.55-.86-.56-1.32 0l-7.78 9.04a2.42 2.42 0 0 0 .09 3.23c16.37 17.09 52 14.41 54-13.09 2-26.9-39.17-26.45-36.72-41.61a6.85 6.85 0 0 1 3-4.84q11.6-7.75 20.49 3.36a.76.76 0 0 0 1.25.09l9.17-8.58a1 1 0 0 0 .05-1.37q-16.9-17.59-39.11-6c-13.41 7-16.68 25.66-4.35 35.42M1081.09 193c6.55 30.28 40.52 39.16 66.08 26.91 3.61-1.73 2.23-13.45 2.45-17.19a1 1 0 0 0-.88-1 .94.94 0 0 0-.66.21c-21.94 17.55-56.7 6.22-49.63-26.71 3.92-18.29 21-25.54 38.63-20.24q4.26 1.29 11.68 6.42.91.65 1-.48l.65-14.75a1.81 1.81 0 0 0-1-1.71c-35.74-17-77.37 6.22-68.24 48.55M405.18 205.14c-3.65-21.3-11.79-42.88-18.24-63.57a.93.93 0 0 0-1-.73h-18.12c-.45 0-.6.21-.45.62l29.95 81a1.22 1.22 0 0 0 1.25.87h14.69a1.29 1.29 0 0 0 1.32-.93l30.13-80.63a.67.67 0 0 0-.38-.88.6.6 0 0 0-.26 0h-17.38a1 1 0 0 0-1.05.75q-11 31.41-19.55 63.58a.46.46 0 0 1-.55.35.48.48 0 0 1-.36-.38M471.19 188.25a.59.59 0 0 1 .59-.59h29.63a.59.59 0 0 0 .59-.59l.07-13.54a.6.6 0 0 0-.59-.59h-29.7a.59.59 0 0 1-.59-.58v-15.77a.59.59 0 0 1 .59-.59h29.84a.58.58 0 0 0 .59-.59l-.21-14a.59.59 0 0 0-.57-.57h-47a.59.59 0 0 0-.59.59v81.33a.6.6 0 0 0 .59.59l47.25.05a.58.58 0 0 0 .59-.59l-.36-14.13a.59.59 0 0 0-.59-.57l-29.5.23a.59.59 0 0 1-.59-.59v-19.5M577.87 150.54c-15.21-12.07-37.74-10.18-55.79-9.54a2.46 2.46 0 0 0-2.68 2.8l.45 78.42a1 1 0 0 0 1 1.07c28 .59 65.42 4 70-34.81 1.57-13.31-2.07-29.25-13-37.94M650.19 205.94a.79.79 0 0 1 .75.52l6.18 16.35a.79.79 0 0 0 .74.52h18.3a.8.8 0 0 0 .81-.8.72.72 0 0 0-.06-.29l-31.08-80.88a.81.81 0 0 0-.75-.52h-19a.79.79 0 0 0-.75.51l-30.82 81a.81.81 0 0 0 .46 1 1 1 0 0 0 .3.05l17.29-.16a.82.82 0 0 0 .75-.56l5.24-16.23a.81.81 0 0 1 .77-.55h30.83M786.19 223.38h16.14a.93.93 0 0 0 1.06-1.05V193.4a1.07 1.07 0 0 1 1.16-1.21c6.45-.23 13.78-.52 19.35-3.34 13.86-7 17.94-24.59 9.9-37.27-8.17-12.86-33.28-11.54-47.3-10.4a.91.91 0 0 0-1 1v80.54a.64.64 0 0 0 .64.64M867.61 141.34a.47.47 0 0 0-.48-.48h-16.44a.47.47 0 0 0-.48.48V223a.48.48 0 0 0 .48.48h16.44a.48.48 0 0 0 .48-.48v-81.66M903 162.31a68.54 68.54 0 0 0 8.14 14.34q17.39 23.11 35.26 45.93a1.64 1.64 0 0 0 1.34.68l15.44.25a.76.76 0 0 0 .77-.75v-81a.79.79 0 0 0-.89-.89H947.7c-.34 0-.5.17-.48.5l.55 58.86c0 .66-.14.7-.45.1-11.06-20.77-27.8-39.89-42.05-58.69a1.88 1.88 0 0 0-1.56-.77h-16.14a.85.85 0 0 0-1 1l.23 81a.6.6 0 0 0 .7.68l14.8-.13a1 1 0 0 0 1.14-1.17l-.71-59.79a.09.09 0 0 1 .12-.08.08.08 0 0 1 .07 0M1000.63 208.35a.6.6 0 0 1-.6-.61v-19.47a.6.6 0 0 1 .6-.61h29.7a.61.61 0 0 0 .61-.61l-.22-13.5a.61.61 0 0 0-.6-.59h-29.38a.61.61 0 0 1-.61-.58l-.37-15.74a.6.6 0 0 1 .59-.62h30a.62.62 0 0 0 .61-.61l-.23-13.95a.61.61 0 0 0-.6-.59h-46.96a.6.6 0 0 0-.6.61v81.29a.6.6 0 0 0 .6.61h47.07a.61.61 0 0 0 .61-.61l-.09-14a.61.61 0 0 0-.61-.61l-29.52.27M1183.29 156.7a.7.7 0 0 1 .7-.7h29.82a.69.69 0 0 0 .69-.7v-13.76a.7.7 0 0 0-.7-.7h-47.2a.7.7 0 0 0-.7.7v81.08a.69.69 0 0 0 .7.69l46.82.06a.7.7 0 0 0 .69-.68l.52-13.82a.69.69 0 0 0-.66-.73l-29.39.09a.7.7 0 0 1-.7-.67l-.55-19.18a.69.69 0 0 1 .68-.71h29.29a.69.69 0 0 0 .69-.66l.7-13.32a.7.7 0 0 0-.66-.74h-30a.69.69 0 0 1-.7-.69V156.7M1248 163.1a.25.25 0 0 1 .23-.27.26.26 0 0 1 .25.16 48.76 48.76 0 0 0 5.49 9.78q18.29 25.2 37.4 49.81a1.83 1.83 0 0 0 1.54.75h15.64a.79.79 0 0 0 .89-.89v-80.71a.79.79 0 0 0-.89-.89h-15.2a.81.81 0 0 0-.93.93l.25 57.07c0 1.19-.29 1.27-.89.23-11.77-20.35-27.13-38.84-41.5-57.52a1.71 1.71 0 0 0-1.43-.71h-16.55a.79.79 0 0 0-.89.89v80.71a.79.79 0 0 0 .89.89h15.23a.86.86 0 0 0 1-1l-.53-59.23M1320.75 155.3a.72.72 0 0 0 .72.7h18.51a.71.71 0 0 1 .71.71v65.85a.71.71 0 0 0 .72.71l16 .09a.71.71 0 0 0 .71-.71v-66a.71.71 0 0 1 .72-.71h18.9a.72.72 0 0 0 .72-.7l.19-13.73a.71.71 0 0 0-.69-.73H1321a.71.71 0 0 0-.71.71l.44 13.73M1408 208.26a.59.59 0 0 1-.59-.59l.22-19.44a.58.58 0 0 1 .59-.59l29.52.07a.58.58 0 0 0 .58-.59v-13.59a.59.59 0 0 0-.58-.59h-29.59a.58.58 0 0 1-.59-.58v-15.77a.58.58 0 0 1 .59-.59h29.59a.58.58 0 0 0 .58-.59v-14a.58.58 0 0 0-.58-.59h-47a.58.58 0 0 0-.59.59v81.29a.59.59 0 0 0 .59.59l47 .07a.58.58 0 0 0 .58-.58V208.7a.58.58 0 0 0-.58-.58l-29.74.14M1473.12 187.21a.58.58 0 0 1 .59-.59.59.59 0 0 1 .54.31l20 35.35a2 2 0 0 0 1.8 1.05h18.12c.75 0 .93-.32.53-1l-21.49-35.14c-.38-.63-.21-1.06.5-1.28q15.09-4.66 16.8-18.73c3.71-30.5-34.12-27.58-53.88-25.93a.81.81 0 0 0-.86.91v80.22a.78.78 0 0 0 .88.89l15.43.07a1 1 0 0 0 1.08-1.08v-35.05" class="cls-3"></path><path d="M170.26 213a3.16 3.16 0 0 1-2.76-.2.35.35 0 0 1-.19-.45c.41-1.35 1.17-3.59-.57-4.4q-6.68-3.15-13.34-6.33a4.75 4.75 0 0 0-1.57-.43.52.52 0 0 0-.47.19 9.06 9.06 0 0 0-2.05 3.88c-.33 1.36.35 2.48.8 3.78a1.08 1.08 0 0 1-.69 1.37l-3 .84a.48.48 0 0 0-.39.53 5 5 0 0 0 3.15 4.44 84.82 84.82 0 0 0 11.4 4.7.84.84 0 0 0 .93-.27c1.08-1.32 3.33-4 5.31-3a.9.9 0 0 1 .43.45l1.58 3.87a.89.89 0 0 0 .36.45c1.38.88 2.73 1.82 4 2.8 2.72 2 3.78 6.87 8.22 5.2 2.36-.89 2.55-4.13 2.63-6.32.07-2.44-.74-3-3.13-3.29-7.84-1-.71-6.15-.41-9.51a.68.68 0 0 0-.17-.53 11.23 11.23 0 0 0-3.19-2.3c-4-2.11-5.13 1.61-6.45 4.19a.77.77 0 0 1-.43.38" class="cls-5"></path><path d="M142.81 233.29c-.6 4.63 5.13 5.56 8.55 5.58 2.14 0 3.63.43 4.85-1.83.72-1.32 1.25-4.19 3.59-2.88q5.05 2.82 8.83 4.66c2.35 1.15 3.83 3.83 6.39 4.3a.7.7 0 0 0 .51-.08c2.46-1.43 4.58-4.46 3.58-7.24-.8-2.21-3.34-2-4.6-.26a.66.66 0 0 1-.4.27 3 3 0 0 1-3.89-1.63.57.57 0 0 1 0-.54l3.15-5.86a.49.49 0 0 0 0-.47 7.24 7.24 0 0 0-5.15-3.79 1.65 1.65 0 0 1-.79-.5.28.28 0 0 0-.4 0 8.48 8.48 0 0 0-3.43 6 .86.86 0 0 1-.89.76c-3.31-.1-2.29-2.75-2.54-4.89a.49.49 0 0 0-.29-.41q-5.7-2.52-11.42-5A5.84 5.84 0 0 0 146 219a.81.81 0 0 0-.78.63q-1.53 6.84-2.41 13.7" class="cls-5"></path><path d="M147.21 254.34c-.59 3.78 5 3.47 7.1 2.76 4.52-1.54 1.66-5.48 3.92-7a.69.69 0 0 1 .52-.11 59.9 59.9 0 0 0 7.89 1.33c3.18.15 6.47.54 9.56-.43a.71.71 0 0 0 .41-.33c1.39-2.36-.85-5.24-3.17-5.59-1.8-.27-4.26 1-6.18 1.63a.47.47 0 0 1-.58-.31.39.39 0 0 1 0-.26 8 8 0 0 1 1.68-3 .76.76 0 0 0 0-1.09 5.64 5.64 0 0 0-4.11-2.35c-3.73-.31-3.89 2.7-4.19 5.43a.51.51 0 0 1-.56.45.61.61 0 0 1-.18 0 46 46 0 0 0-12.66-4.08c-4.17-.71-1.94 4.17-.87 5.76a9 9 0 0 1 1.38 7.2" class="cls-5"></path><path d="M564.05 160.35a41.18 41.18 0 0 0-26.1-3.92 1 1 0 0 0-.91 1.09l-.04 50.15a1 1 0 0 0 1 1c13.84-.2 28.49.62 33.8-15.43 2.59-7.78 2.07-27.92-7.7-32.84M634.43 157.23c-.93 10.13-6.65 24.15-10.38 33.82a.77.77 0 0 0 .44 1 .66.66 0 0 0 .27.06h20.74c.87 0 1.15-.4.82-1.2a242.71 242.71 0 0 1-10.75-33.8.27.27 0 0 0-.29-.23h-.48a.33.33 0 0 0-.37.34M804.65 177.88c20.12 2.61 20.37-26.89-.16-23.45a.7.7 0 0 0-.66.77V177a.84.84 0 0 0 .82.92M1493 163c-1.37-7.88-12.13-9-18.75-8.54a.66.66 0 0 0-.71.75v20a.76.76 0 0 0 .86.87c9.23 0 20.77-.46 18.6-13" class="cls-3"></path><path d="M170.21 22c2.65-6.46 3.78-13.61 4.34-20.55 0-.53.1-.53.16 0 .9 7.27.31 13.56 3.56 20.39a.48.48 0 0 1-.24.65h-.12a20.51 20.51 0 0 1-7.41 0 .39.39 0 0 1-.32-.44Z" class="cls-6"></path><path d="M186.59 42.47c-30.6-7.77-58.93 14.8-59.8 45.38a.54.54 0 0 1-.54.52h-10.43a.36.36 0 0 1-.4-.36c-1.61-12.46-15.8-19.2-26.72-22.25-.15 0-.16-.11 0-.2a.84.84 0 0 1 .71-.09c12.06 2.61 36.23 4 35.51-15-.31-8.15-8-18.06-13.88-24.41-.14-.15-.11-.23.09-.25a.82.82 0 0 1 .64.23c7 6.37 18.63 14.88 28.79 12.94 15.19-2.89 13-25.4 10.39-35.71a.48.48 0 0 1 .28-.59.33.33 0 0 1 .43.19c2.39 8.22 6.85 18.29 14 23.46 10.4 7.56 19.67.23 25.18-8.63 3-4.88 4.63-9.64 6.47-14.67.27-.75.37-.73.29.06-.2 2-1 3.82-1.1 5.68-.35 4.94-1.08 9.62-.31 15 1 6.65 4 12.86 10.7 14.86 9.69 2.87 22.2-5.52 28.76-11.74a9.6 9.6 0 0 1 1.63-1.16c.14-.08.21 0 .2.12V26a.27.27 0 0 1-.08.23 57 57 0 0 0-11.42 16.29c-6.1 13.23 1.06 23.18 15.29 24.09a61.84 61.84 0 0 0 17-1.25 6.76 6.76 0 0 1 2.07.06c.25 0 .26.09 0 .15a41.75 41.75 0 0 0-6.9 2.22c-8.94 4.2-19.09 9.38-20.2 20.5a.2.2 0 0 1-.23.2l-9.72-.2a.76.76 0 0 1-.85-.83 47.4 47.4 0 0 0-35.85-44.99Z" style="fill:#fc4705"></path><path d="M218.81 13q-4.38 8.85-5.48 11.44a17.48 17.48 0 0 0-1.33 7.67.71.71 0 0 1-.68.72h-.16c-1-.2-9-3-5.68-5.05 5.23-3.26 9.52-10 13.2-14.83.32-.52.4-.48.13.05ZM144.76 29.36c-1.16 1-5 3.58-6.6 3a.55.55 0 0 1-.35-.46 36.46 36.46 0 0 0-1.32-7.25q-2.16-5.82-4.43-11.65c-.23-.59-.18-.62.16-.09C135.83 18.53 139 24 144.68 28a.88.88 0 0 1 .22 1.24.67.67 0 0 1-.14.12ZM98.64 43.85a.13.13 0 0 1 0-.19.13.13 0 0 1 .19 0c6.64 3.45 12.44 6.61 20 7.69a.29.29 0 0 1 .25.32s0 0 0 .06a22.2 22.2 0 0 1-3.79 6.24.51.51 0 0 1-.71.06l-.08-.08c-4.36-5.79-9.89-10.04-15.86-14.1ZM234.68 58.63l-.05.14a.22.22 0 0 1-.28.14.23.23 0 0 1-.1-.07 28 28 0 0 1-4-6.9c-.06-.15 0-.24.15-.26 7.56-1.15 13.93-4 20.9-6.9.8-.33.84-.26.11.22s-1.69 1.07-2.55 1.55a48.39 48.39 0 0 0-14.12 12 .23.23 0 0 0-.06.08Z" class="cls-6"></path><ellipse cx="173.83" cy="77.13" class="cls-8" rx="16.48" ry="16.27"></ellipse><path d="M175.74 105.37v.56a.56.56 0 0 0 .25.46 3 3 0 0 1 1.18 3.43.8.8 0 0 1-.31.47c-1.47 1.07-3.08 1.69-4.89 1-3.08-1.22-5.73-4.08-3.51-7.41a.75.75 0 0 1 .44-.32l3.92-1.2a.36.36 0 0 0 .25-.46v-.08c-1-1.67-2.12-3.6-.15-5.1 2.8-2.13 4.32.95 5.26 3a.32.32 0 0 0 .44.19c1.74-.59 5.09-2.39 7.12-2.33a.62.62 0 0 1 .49.23c.83 1 2.8 3.65 1.09 4.9a27.71 27.71 0 0 1-7.49 3.86.55.55 0 0 1-.5-.06l-2.56-1.67q-1.07-.73-1.03.53ZM120.57 155.19H70.92a15.79 15.79 0 0 1-4.89-.52 5.64 5.64 0 0 1-.14-10.41 15.14 15.14 0 0 1 5.18-.58h46.55a.25.25 0 0 0 .28-.26l.4-8.23c0-.19-.08-.29-.29-.29q-51.92.08-73.51 0-4.81 0-6.27-3.81a5.62 5.62 0 0 1 2.46-6.9 10.15 10.15 0 0 1 4.62-.78h53.41c5.56 0 14.68-.24 22.08.06a.42.42 0 0 0 .43-.25l3.91-7.91a.66.66 0 0 0-.32-.9.63.63 0 0 0-.33-.06c-5.27.31-11.56.06-15.52 0H36.05c-.66 0-1.5.21-2.27.15-7.08 0-14.13 0-21.21-.24-2.38-.1-5.36.44-7.38-.12-6.4-1.76-5.19-11.28 1.73-11.29H134c5 0 8.93 4.1 7.15 9.13a13.93 13.93 0 0 1-2.17 3.36c-6.47 8.21-9.21 17.08-9.33 27.45 0 2.46.42 6.15-1 8.29a9 9 0 0 1-8.08 4.11ZM330.88 114.4l-110 .12c-.28 0-.35.12-.19.35a41.11 41.11 0 0 1 4.05 7.82.74.74 0 0 0 .41.42c1.28.58 2.72.16 3.74.17q36.18.27 65.51.09c3.23 0 8.59-.54 11 .62a5.58 5.58 0 0 1 .27 9.93 11.62 11.62 0 0 1-5.42 1q-35.65 0-71.8-.08a.4.4 0 0 0-.41.4l.31 7.87a.5.5 0 0 0 .56.53h46.58a15.41 15.41 0 0 1 4.73.5c6.15 2.24 4 11-2.57 11h-51.43c-7.52-.15-9.76-4.69-9.51-11.18a42.92 42.92 0 0 0-5.89-23.7c-1.48-2.53-4.17-5.46-5.53-8-1.86-3.43.65-7.69 4.05-8.93a19.15 19.15 0 0 1 5.47-.5h122.46c2 0 4.27 0 5.91 1.1a5.69 5.69 0 0 1 1.07 8.26c-2.58 3.24-9.63 2.17-13.37 2.21ZM181.24 113.93l2-4.7a.62.62 0 0 1 .45-.38 11.86 11.86 0 0 1 5.1-.19.34.34 0 0 1 .31.36l.21 4.65a.33.33 0 0 0 .29.33c1.83.33 7.88 1.73 8.74 3.36 2.57 4.81-8 2.73-9.87 2.16a.87.87 0 0 1-.47-.32 10.57 10.57 0 0 0-2.83-2.55 1 1 0 0 0-1.41.32 1 1 0 0 0-.15.49l-.13 3.09a1.35 1.35 0 0 1-.89 1.22c-5.39 2-7.81-.69-9.48-5.5a2.21 2.21 0 0 1 0-1.6c1.06-2.59 2.89-1.86 5-3a.4.4 0 0 1 .52.07l2.28 2.24c.09.19.24.17.33-.05Z" class="cls-8"></path><path d="M120.57 155.19a.61.61 0 0 0-.13.53.11.11 0 0 0 .11.12h.21c.27 0 .28.1 0 .19l-.24.07a.07.07 0 0 0-.05.09q8.87 26.85 35.63 37l-2.41 5.16a.53.53 0 0 0 .27.72q5.69 2.4 11.51 5c2.71 1.21 4.85.12 7.71-1.23a.8.8 0 0 1 .55 0c4.39 1.18 12.12 16.55 17.27 8.57.95-1.48 2.07-4.81.48-6.15-1-.83-2.88-.51-4.11-.81-2.27-.55-3-2.86-2.23-4.88a4.49 4.49 0 0 1 2-1.95.64.64 0 0 0 .3-.42 2.13 2.13 0 0 0-.52-2 1.26 1.26 0 0 1 .81-.6.51.51 0 0 0 .36-.24l.66-1c1.21 1.15 4.64 4.38 6.21 2.2a13.09 13.09 0 0 0 1.85-3.6 2.33 2.33 0 0 0 1.25-2.06.53.53 0 0 1 .3-.46c13.35-7.07 20.81-17.17 26.73-30.67.49-1.12.58-2.37 1.07-3.58h51.43c6.54 0 8.72-8.74 2.57-11a15.41 15.41 0 0 0-4.73-.5h-46.58a.5.5 0 0 1-.56-.53l-.31-7.87a.4.4 0 0 1 .39-.42q36.13.09 71.8.08a11.62 11.62 0 0 0 5.42-1 5.58 5.58 0 0 0-.27-9.93c-2.42-1.16-7.78-.65-11-.62q-29.33.18-65.51-.09c-1 0-2.46.41-3.74-.17a.74.74 0 0 1-.41-.42 41.11 41.11 0 0 0-4.05-7.82c-.16-.23-.09-.35.19-.35l110-.12c-.31.13-.47.69-.06.86a.15.15 0 0 1 .11.19 4.09 4.09 0 0 1-.77 1.77q-70.93 77.43-141.85 154.89-2.09 2.26-4.62 4.57t-4.77 4.44l-.82-1.67a.4.4 0 0 1 .08-.49 29.24 29.24 0 0 0 4.9-5.79.62.62 0 0 0 0-.59 2.64 2.64 0 0 0-2.23-1.48.85.85 0 0 0-.79.37l-.98 1.56a.32.32 0 0 1-.47.11c-1.66-.89-3.4-1.79-4.94-.41l-1.69-1.52c1.59-1.31 5.22-2.93 4.68-5.39a.88.88 0 0 0-1-.67h-.16c-2.19.9-4.26 2.65-6.17 0a.46.46 0 0 0-.49-.19c-2.46.46-1.83 2.56-1 4.13a.68.68 0 0 1-.3.91.71.71 0 0 1-.32.07h-4.46l.08-.57a.5.5 0 0 0-.17-.47.75.75 0 0 0-.6-.19l1.4-1.17a.44.44 0 0 0 .16-.51l-.67-2.32a1.18 1.18 0 0 1 .69-1.43 91.52 91.52 0 0 1 9-3.22c1-.32 2-1.06 2-2.14-.14-3.42-4.34-1.06-5.81-.55a.45.45 0 0 1-.52-.13c-1.28-1.4-2.93-4.27-5.62-3.77a.49.49 0 0 0-.37.31c-.89 2.09.27 3.39 1.15 5.14a.43.43 0 0 1-.05.47c-1.37 1.78-2.76-1.62-3.25-2.45a.84.84 0 0 0-1.15-.31 19.22 19.22 0 0 1-5.83 2.48 4.17 4.17 0 0 0-2.66 2.76 38.21 38.21 0 0 1-7.62-6.7Q80.35 187.22 17.88 119.11c-.89-1-1.74-1.62-2.11-3-.07-.24 0-.35.28-.32a28.18 28.18 0 0 0 6.36 0c3.84-.45 7.14-.27 10.77-.45a.51.51 0 0 0 .44-.26 1.27 1.27 0 0 0 .16-.57c.77.06 1.61-.15 2.27-.15H109c4 0 10.25.26 15.52 0a.67.67 0 0 1 .72.63.64.64 0 0 1-.07.33l-3.91 7.91a.42.42 0 0 1-.43.25c-7.4-.3-16.52-.07-22.08-.06H45.34a10.15 10.15 0 0 0-4.62.78 5.62 5.62 0 0 0-2.46 6.9q1.46 3.79 6.27 3.81 21.6.08 73.51 0c.21 0 .3.1.29.29l-.4 8.23a.25.25 0 0 1-.28.26H71.07a15.14 15.14 0 0 0-5.18.58 5.64 5.64 0 0 0 .11 10.39 15.79 15.79 0 0 0 4.89.52q24.86-.03 49.68.01ZM170.26 213a3.16 3.16 0 0 1-2.76-.2.35.35 0 0 1-.19-.45c.41-1.35 1.17-3.59-.57-4.4q-6.68-3.15-13.34-6.33a4.75 4.75 0 0 0-1.57-.43.52.52 0 0 0-.47.19 9.06 9.06 0 0 0-2.05 3.88c-.33 1.36.35 2.48.8 3.78a1.08 1.08 0 0 1-.69 1.37l-3 .84a.48.48 0 0 0-.39.53 5 5 0 0 0 3.15 4.44 84.82 84.82 0 0 0 11.4 4.7.84.84 0 0 0 .93-.27c1.08-1.32 3.33-4 5.31-3a.9.9 0 0 1 .43.45l1.58 3.87a.89.89 0 0 0 .36.45c1.38.88 2.73 1.82 4 2.8 2.72 2 3.78 6.87 8.22 5.2 2.36-.89 2.55-4.13 2.63-6.32.07-2.44-.74-3-3.13-3.29-7.84-1-.71-6.15-.41-9.51a.68.68 0 0 0-.17-.53 11.23 11.23 0 0 0-3.19-2.3c-4-2.11-5.13 1.61-6.45 4.19a.77.77 0 0 1-.43.34Zm-27.45 20.32c-.6 4.63 5.13 5.56 8.55 5.58 2.14 0 3.63.43 4.85-1.83.72-1.32 1.25-4.19 3.59-2.88q5.05 2.82 8.83 4.66c2.35 1.15 3.83 3.83 6.39 4.3a.7.7 0 0 0 .51-.08c2.46-1.43 4.58-4.46 3.58-7.24-.8-2.21-3.34-2-4.6-.26a.66.66 0 0 1-.4.27 3 3 0 0 1-3.89-1.63.57.57 0 0 1 0-.54l3.15-5.86a.49.49 0 0 0 0-.47 7.24 7.24 0 0 0-5.15-3.79 1.65 1.65 0 0 1-.79-.5.28.28 0 0 0-.4 0 8.48 8.48 0 0 0-3.43 6 .86.86 0 0 1-.89.76c-3.31-.1-2.29-2.75-2.54-4.89a.49.49 0 0 0-.29-.41q-5.7-2.52-11.42-5A5.84 5.84 0 0 0 146 219a.81.81 0 0 0-.78.63q-1.53 6.8-2.41 13.66Zm4.4 21.05c-.59 3.78 5 3.47 7.1 2.76 4.52-1.54 1.66-5.48 3.92-7a.69.69 0 0 1 .52-.11 59.9 59.9 0 0 0 7.89 1.33c3.18.15 6.47.54 9.56-.43a.71.71 0 0 0 .41-.33c1.39-2.36-.85-5.24-3.17-5.59-1.8-.27-4.26 1-6.18 1.63a.47.47 0 0 1-.58-.31.39.39 0 0 1 0-.26 8 8 0 0 1 1.68-3 .76.76 0 0 0 0-1.09 5.64 5.64 0 0 0-4.11-2.35c-3.73-.31-3.89 2.7-4.19 5.43a.51.51 0 0 1-.56.45.61.61 0 0 1-.18 0 46 46 0 0 0-12.66-4.08c-4.17-.71-1.94 4.17-.87 5.76a9 9 0 0 1 1.42 7.16Z" class="cls-9"></path><path d="M184 127.43a.53.53 0 0 0 .74-.09.52.52 0 0 0 .11-.38c-.38-3.36 2-4.87 5.16-4.55 2.38.24 2.8 4.88 3 6.27a.51.51 0 0 0 .31.39c2 .91 9.58 4.2 10.32 6.55 1.3 4.12-12.13-.93-13.25-1.31-2.66-.91-2-2.37-3.54-4.14a.57.57 0 0 0-.49-.2l-.69.06a.39.39 0 0 0-.42.42l-.22 4.16a.38.38 0 0 1-.26.35c-2.41.9-6.57 2.63-7.91 1.83s-3.32-7-2.77-8.58c.83-2.34 4.43-3 6.54-3.06a.89.89 0 0 1 .61.19Z" class="cls-8"></path><path d="M175.67 151c-2.38.91-5.12.16-3-2.85 1.73-2.5 1.18-5.28-.4-7.66a.3.3 0 0 1 0-.41c2.71-2.73 6.8-2.16 10.4-2.76a4.52 4.52 0 0 1 2 .38.55.55 0 0 1 .35.36c.3.89.59 2.19 1.45 2.6 1.77.87 2.13-2 2.56-3a.62.62 0 0 1 .43-.36 5.77 5.77 0 0 1 2.83 0 .65.65 0 0 1 .46.45l1.05 3.2a1.24 1.24 0 0 0 1.56.78h.12a2.89 2.89 0 0 1 3 .14c4 2.8.9 5-1.13 7.29a.25.25 0 0 0 0 .38l6.34 7.26c.38.44.29.75-.26.93-1.9.61-2.7 0-4.52-1s-7.3-4.23-7.58-6.06a12.66 12.66 0 0 0-1.06-3.45.64.64 0 0 0-.41-.36 4.58 4.58 0 0 0-3.54.13.74.74 0 0 0-.41.47l-1.28 3.95c-.06.19-.18.24-.36.14a10.85 10.85 0 0 0-8.6-.55Z" class="cls-8"></path><path d="m184.76 157.45 1.12-4a.74.74 0 0 1 .28-.41c2.66-2 5.06 2.07 5.91 4a.72.72 0 0 0 .38.39c2.45 1.07 4.42 1.93 5.61 4.46.57 1.22-1.08 3.38-1.61 4.58a.63.63 0 0 0 .33.85.34.34 0 0 0 .14.05c2.3.44 5.55 2.35 5.56 5 0 3.6-4 3.11-6.17 2.17-2.72-1.19-5.37-2-8-3.09s-1.36-3.91-.92-5.83c.58-2.48-2.6-2-3.81-1.38a.9.9 0 0 0-.38.37c-.73 1.44-.86 5.63-2.84 5.57q-6.21-.18-12.3-.82a.42.42 0 0 1-.38-.46v-.11c.77-1.87 1.83-3.32 2.2-5.3.56-2.91 1.07-5.68 1.56-8.31a1.16 1.16 0 0 1 1.17-.95l7.62.16c1.83 0 2.59.94 2.92 2.58a.63.63 0 0 0 .39.46l.76.3a.31.31 0 0 0 .46-.28Z" class="cls-8"></path><path d="M196.86 192a13.09 13.09 0 0 1-1.85 3.6c-1.57 2.18-5-1.05-6.21-2.2l-5.91-5.27c-1.49-1.33-1.54-2.8-2-4.57a.61.61 0 0 0-.38-.42 2.86 2.86 0 0 0-2.26 0 .59.59 0 0 0-.38.42c-1 3.45-2.31 4.8-6.13 4.17-3.32-.54-6.92-1.29-9.62-3.2a.5.5 0 0 1-.22-.45c.2-3.45 2-8.17 2.93-11.62a2.92 2.92 0 0 1 1.62-1.72.56.56 0 0 1 .49 0c5.05 1.84 10.25 1.26 13.68 5.91a.38.38 0 0 0 .51.08.35.35 0 0 0 .12-.17l1.5-4.31a.67.67 0 0 1 .37-.4 4.75 4.75 0 0 1 3.2-.15.75.75 0 0 1 .47.38 7.59 7.59 0 0 1 .75 2.16.83.83 0 0 1 0 .41l-.56 1.87a.31.31 0 0 0 .29.44c5.76.88 5.3 5.41 5.28 9.77 0 2.53 2.07 3 4 3.74a.4.4 0 0 1 .27.38Z" class="cls-8"></path><path d="M187 195.17a2.13 2.13 0 0 1 .52 2 .64.64 0 0 1-.3.42 4.49 4.49 0 0 0-2 1.95c-.78 2 0 4.33 2.23 4.88 1.23.3 3.13 0 4.11.81 1.59 1.34.47 4.67-.48 6.15-5.15 8-12.88-7.39-17.27-8.57a.8.8 0 0 0-.55 0c-2.86 1.35-5 2.44-7.71 1.23q-5.82-2.58-11.51-5a.55.55 0 0 1-.29-.72l2.41-5.16a16.21 16.21 0 0 0 2.59-7 .9.9 0 0 1 1-.78h.18a117.09 117.09 0 0 1 14.92 6.06 1.39 1.39 0 0 1 .79 1.3c0 1.49-.48 4.85 1.93 4.85a.4.4 0 0 0 .36-.2l3.4-5.09a.62.62 0 0 1 .5-.29c1.38-.08 3.87 2.48 5.17 3.16Z" class="cls-8"></path><path d="M170.69 212.59c1.32-2.58 2.45-6.3 6.45-4.19a11.23 11.23 0 0 1 3.19 2.3.68.68 0 0 1 .17.53c-.3 3.36-7.43 8.48.41 9.51 2.39.32 3.2.85 3.13 3.29-.08 2.19-.27 5.43-2.63 6.32-4.44 1.67-5.5-3.18-8.22-5.2-1.31-1-2.66-1.92-4-2.8a.89.89 0 0 1-.36-.45l-1.62-3.9a.9.9 0 0 0-.43-.45c-2-.93-4.23 1.73-5.31 3a.84.84 0 0 1-.93.27 84.82 84.82 0 0 1-11.4-4.7 5 5 0 0 1-3.15-4.44.48.48 0 0 1 .39-.53l3-.84a1.07 1.07 0 0 0 .75-1.33.43.43 0 0 0 0-.05c-.45-1.3-1.13-2.42-.8-3.78a9.06 9.06 0 0 1 2.05-3.88.52.52 0 0 1 .47-.19 4.75 4.75 0 0 1 1.57.43q6.66 3.18 13.34 6.33c1.74.81 1 3.05.57 4.4a.35.35 0 0 0 .19.45 3.16 3.16 0 0 0 2.76.2.77.77 0 0 0 .41-.3Z" class="cls-8"></path><path d="M151.36 238.87c-3.42 0-9.15-1-8.55-5.58s1.39-9.14 2.41-13.7a.81.81 0 0 1 .78-.59 5.84 5.84 0 0 1 2.47.52q5.73 2.45 11.42 5a.49.49 0 0 1 .29.41c.25 2.14-.77 4.79 2.54 4.89a.86.86 0 0 0 .89-.76 8.48 8.48 0 0 1 3.43-6 .28.28 0 0 1 .4 0 1.65 1.65 0 0 0 .79.5 7.24 7.24 0 0 1 5.15 3.79.49.49 0 0 1 0 .47l-3.15 5.86a.57.57 0 0 0 0 .54 3 3 0 0 0 3.89 1.63.66.66 0 0 0 .4-.27c1.26-1.75 3.8-1.95 4.6.26 1 2.78-1.12 5.81-3.58 7.24a.7.7 0 0 1-.51.08c-2.56-.47-4-3.15-6.39-4.3q-3.78-1.84-8.83-4.66c-2.34-1.31-2.87 1.56-3.59 2.88-1.22 2.22-2.72 1.8-4.86 1.79Z" class="cls-8"></path><path d="M154.31 257.1c-2.13.71-7.69 1-7.1-2.76a9 9 0 0 0-1.38-7.2c-1.07-1.59-3.3-6.47.87-5.76a46 46 0 0 1 12.66 4.08.52.52 0 0 0 .69-.23.84.84 0 0 0 0-.17c.3-2.73.46-5.74 4.19-5.43a5.64 5.64 0 0 1 4.16 2.37.76.76 0 0 1 0 1.09 8 8 0 0 0-1.68 3 .46.46 0 0 0 .31.57.62.62 0 0 0 .27 0c1.92-.59 4.38-1.9 6.18-1.63 2.32.35 4.56 3.23 3.17 5.59a.71.71 0 0 1-.41.33c-3.09 1-6.38.58-9.56.43a59.9 59.9 0 0 1-7.89-1.33.69.69 0 0 0-.52.11c-2.27 1.46.56 5.4-3.96 6.94Z" class="cls-8"></path><path d="M161.88 268.91a5.19 5.19 0 0 1-4.14 1.52.57.57 0 0 1-.44-.23 56.55 56.55 0 0 0-6.2-6.63 4.87 4.87 0 0 1-.75-1.48 4.17 4.17 0 0 1 2.66-2.76 19.22 19.22 0 0 0 5.83-2.48.85.85 0 0 1 1.17.25c.49.83 1.88 4.23 3.25 2.45a.43.43 0 0 0 .05-.47c-.88-1.75-2-3.05-1.15-5.14a.49.49 0 0 1 .37-.31c2.69-.5 4.34 2.37 5.62 3.77a.45.45 0 0 0 .52.13c1.47-.51 5.67-2.87 5.81.55 0 1.08-1 1.82-2 2.14a91.52 91.52 0 0 0-9 3.22 1.18 1.18 0 0 0-.69 1.43l.67 2.32a.44.44 0 0 1-.16.51ZM171.86 271.24l-1.54 1.53a.7.7 0 0 0-.22.51l-.11 3.09a.84.84 0 0 1-.26.57 8.65 8.65 0 0 1-3.92 2 .46.46 0 0 1-.46-.11 40 40 0 0 0-4.21-3.48 2.84 2.84 0 0 1 1.43-5.25H167a.68.68 0 0 0 .69-.68.63.63 0 0 0-.07-.3c-.81-1.57-1.44-3.67 1-4.13a.46.46 0 0 1 .49.19c1.91 2.64 4 .89 6.17 0a.91.91 0 0 1 1.17.48.83.83 0 0 1 0 .15c.63 2.5-3 4.12-4.59 5.43ZM178.92 281.12c.6 3.45-2.29 3.75-4.7 4.4a5 5 0 0 1-2.06-.57 8.37 8.37 0 0 1-3.62-3.17v-1c1.27-2.55 2.2-2.63 4.83-3.32a.27.27 0 0 0 .22-.39 7.72 7.72 0 0 1 0-4.26c1.54-1.38 3.28-.48 4.94.41a.32.32 0 0 0 .47-.11l1-1.61a.85.85 0 0 1 .79-.37 2.64 2.64 0 0 1 2.23 1.48.62.62 0 0 1 0 .59 29.24 29.24 0 0 1-4.86 5.76.4.4 0 0 0-.08.49Z" class="cls-8"></path><path d="M168.54 280.73v1l-1.21-1.07c-.31-.26-.27-.35.13-.25ZM172.16 285a5 5 0 0 0 2.06.57l-1 .38a.52.52 0 0 1-.47 0 1.18 1.18 0 0 1-.59-.95Z" class="cls-9"></path><path d="M724.84 178.35c-12.33-9.76-9.06-28.43 4.35-35.42q22.2-11.56 39.11 6a1 1 0 0 1 0 1.36l-9.17 8.58a.76.76 0 0 1-1.25-.09q-8.9-11.11-20.49-3.36a6.85 6.85 0 0 0-3 4.84c-2.39 15.22 38.77 14.74 36.73 41.67-2.08 27.5-37.67 30.18-54 13.09a2.42 2.42 0 0 1-.09-3.23l7.79-9.08c.46-.52.9-.51 1.32 0 15.93 20.28 42.77-.63 18.27-12.26a101.22 101.22 0 0 1-19.57-12.1ZM1147.17 219.94c-25.56 12.25-59.53 3.37-66.08-26.91-9.13-42.33 32.5-65.6 68.24-48.55a1.81 1.81 0 0 1 1 1.71l-.65 14.75q0 1.13-1 .48-7.42-5.13-11.68-6.42c-17.68-5.3-34.71 1.95-38.63 20.24-7.07 32.93 27.69 44.26 49.63 26.71a.94.94 0 0 1 1.33.14 1 1 0 0 1 .21.66c-.14 3.74 1.24 15.46-2.37 17.19ZM405.18 205.14a.48.48 0 0 0 .53.39.46.46 0 0 0 .38-.36q8.52-32.17 19.55-63.58a1 1 0 0 1 1.05-.75h17.38a.68.68 0 0 1 .69.67.85.85 0 0 1-.05.26l-30.13 80.63a1.29 1.29 0 0 1-1.32.93h-14.69a1.22 1.22 0 0 1-1.25-.87l-29.95-81c-.15-.41 0-.62.45-.62H386a.93.93 0 0 1 1 .73c6.39 20.69 14.53 42.27 18.18 63.57ZM471.19 188.25v19.49a.59.59 0 0 0 .59.59l29.5-.23a.59.59 0 0 1 .59.57l.36 14.13a.59.59 0 0 1-.57.6l-47.25-.05a.6.6 0 0 1-.59-.59v-81.33a.59.59 0 0 1 .59-.59h47a.59.59 0 0 1 .57.57l.21 14a.59.59 0 0 1-.57.61h-29.84a.59.59 0 0 0-.59.59v15.77a.59.59 0 0 0 .59.58h29.7a.6.6 0 0 1 .59.59l-.07 13.52a.59.59 0 0 1-.59.59h-29.63a.59.59 0 0 0-.59.59ZM577.87 150.54c11 8.69 14.61 24.63 13 37.94-4.59 38.79-42 35.4-70 34.81a1 1 0 0 1-1-1.07l-.45-78.42a2.46 2.46 0 0 1 2.68-2.8c18.03-.64 40.56-2.53 55.77 9.54Zm-13.82 9.81a41.18 41.18 0 0 0-26.1-3.92 1 1 0 0 0-.91 1.09l-.04 50.15a1 1 0 0 0 1 1c13.84-.2 28.49.62 33.8-15.43 2.54-7.83 2.02-27.97-7.75-32.89ZM650.19 205.94h-30.83a.81.81 0 0 0-.77.55l-5.24 16.23a.82.82 0 0 1-.75.56l-17.29.16a.81.81 0 0 1-.82-.79.8.8 0 0 1 .06-.3l30.82-81a.79.79 0 0 1 .75-.51h19a.81.81 0 0 1 .75.52l31.08 80.88a.81.81 0 0 1-.46 1 .93.93 0 0 1-.29.05h-18.3a.79.79 0 0 1-.74-.52l-6.18-16.35a.79.79 0 0 0-.79-.48Zm-15.76-48.71c-.93 10.13-6.65 24.15-10.38 33.82a.77.77 0 0 0 .44 1 .66.66 0 0 0 .27.06h20.74c.87 0 1.15-.4.82-1.2a242.71 242.71 0 0 1-10.75-33.8.27.27 0 0 0-.29-.23h-.48a.33.33 0 0 0-.37.35ZM786.19 223.38a.64.64 0 0 1-.64-.64V142.2a.91.91 0 0 1 1-1c14-1.14 39.13-2.46 47.3 10.4 8 12.68 4 30.25-9.9 37.27-5.57 2.82-12.9 3.11-19.35 3.34a1.07 1.07 0 0 0-1.16 1.21v28.88a.93.93 0 0 1-1.06 1.05Zm18.46-45.5c20.12 2.61 20.37-26.89-.16-23.45a.7.7 0 0 0-.66.77V177a.84.84 0 0 0 .82.88Z" class="cls-8"></path><rect width="17.41" height="82.58" x="850.21" y="140.86" class="cls-8" rx=".48"></rect><path d="M903 162.31a.1.1 0 0 0-.14 0 .08.08 0 0 0-.05.07l.71 59.79a1 1 0 0 1-1.14 1.17l-14.8.13a.6.6 0 0 1-.7-.68l-.23-81a.85.85 0 0 1 1-1h16.14a1.88 1.88 0 0 1 1.56.77c14.25 18.8 31 37.92 42.05 58.69.31.6.46.56.45-.1l-.55-58.86c0-.33.14-.5.48-.5H963a.79.79 0 0 1 .89.89v81a.76.76 0 0 1-.77.75l-15.44-.25a1.64 1.64 0 0 1-1.34-.68q-17.88-22.82-35.26-45.93a68.54 68.54 0 0 1-8.08-14.26ZM1000.63 208.35l29.52-.27a.61.61 0 0 1 .61.61l.09 14a.61.61 0 0 1-.61.61h-47.07a.6.6 0 0 1-.6-.61v-81.24a.6.6 0 0 1 .6-.61h46.95a.61.61 0 0 1 .6.59l.23 13.95a.6.6 0 0 1-.58.62h-30a.61.61 0 0 0-.61.61l.37 15.74a.61.61 0 0 0 .61.58h29.38a.61.61 0 0 1 .6.59l.22 13.5a.61.61 0 0 1-.59.63h-29.72a.6.6 0 0 0-.6.61v19.47a.6.6 0 0 0 .6.62ZM1183.29 156.7v15.55a.69.69 0 0 0 .7.69h30a.7.7 0 0 1 .7.7L1214 187a.69.69 0 0 1-.69.66H1184a.69.69 0 0 0-.7.69l.55 19.18a.7.7 0 0 0 .7.67l29.39-.09a.7.7 0 0 1 .7.7l-.52 13.82a.7.7 0 0 1-.69.68l-46.82-.06a.69.69 0 0 1-.7-.69v-81.02a.7.7 0 0 1 .7-.7h47.19a.7.7 0 0 1 .7.7v13.76a.69.69 0 0 1-.69.7H1184a.7.7 0 0 0-.7.7ZM1248 163.1l.51 59.25a.86.86 0 0 1-1 1h-15.23a.79.79 0 0 1-.89-.89v-80.73a.79.79 0 0 1 .89-.89h16.55a1.71 1.71 0 0 1 1.43.71c14.37 18.68 29.73 37.17 41.5 57.52.6 1 .89 1 .89-.23l-.25-57.07a.81.81 0 0 1 .93-.93h15.2a.79.79 0 0 1 .89.89v80.71a.79.79 0 0 1-.89.89H1293a1.83 1.83 0 0 1-1.54-.75Q1272.3 198 1254 172.77a48.76 48.76 0 0 1-5.49-9.78.25.25 0 0 0-.33-.14.24.24 0 0 0-.18.25ZM1320.75 155.3l-.44-13.73a.71.71 0 0 1 .69-.73h56.9a.71.71 0 0 1 .71.71l-.19 13.73a.72.72 0 0 1-.72.7h-18.9a.71.71 0 0 0-.72.71v66a.71.71 0 0 1-.71.71l-16-.09a.71.71 0 0 1-.72-.71v-65.87a.71.71 0 0 0-.71-.71h-18.51a.72.72 0 0 1-.68-.72ZM1408 208.26l29.74-.14a.58.58 0 0 1 .58.58v14.1a.58.58 0 0 1-.58.58l-47-.07a.59.59 0 0 1-.59-.59v-81.29a.58.58 0 0 1 .59-.59h47a.58.58 0 0 1 .58.59v14a.58.58 0 0 1-.58.59h-29.59a.58.58 0 0 0-.59.59v15.77a.58.58 0 0 0 .59.58h29.59a.59.59 0 0 1 .58.59v13.59a.58.58 0 0 1-.58.59l-29.52-.07a.58.58 0 0 0-.59.59l-.22 19.44a.59.59 0 0 0 .59.59ZM1473.12 187.21v35.09a1 1 0 0 1-1.08 1.08l-15.43-.07a.78.78 0 0 1-.88-.89V142.2a.81.81 0 0 1 .86-.91c19.76-1.65 57.59-4.57 53.88 25.93q-1.71 14.07-16.8 18.73c-.71.22-.88.65-.5 1.28l21.49 35.14c.4.64.22 1-.53 1H1496a2 2 0 0 1-1.8-1.05l-20-35.35a.61.61 0 0 0-.82-.24.57.57 0 0 0-.26.48ZM1493 163c-1.37-7.88-12.13-9-18.75-8.54a.66.66 0 0 0-.71.75v20a.76.76 0 0 0 .86.87c9.26-.08 20.8-.53 18.6-13.08Z" class="cls-8"></path></svg>